<svg id="svg" version="1.1" xmlns="http://www.w3.org/2000/svg" xmlns:xlink="http://www.w3.org/1999/xlink" width="400" height="190.47619047619048" viewBox="0, 0, 400,190.47619047619048"><g id="svgg"><path id="path0" d="M184.190 0.209 C 107.857 3.155,41.976 26.372,13.809 60.252 C -0.874 77.914,-4.002 97.856,4.976 116.560 C 34.010 177.051,175.428 208.361,291.524 180.002 C 358.411 163.663,399.902 131.213,399.902 95.238 C 399.902 39.573,300.371 -4.274,184.190 0.209 M197.887 6.942 L 199.986 8.170 202.099 6.942 C 204.496 5.549,204.376 5.597,204.253 6.069 C 204.189 6.313,204.283 6.456,204.556 6.527 C 205.058 6.659,205.063 7.184,204.581 9.312 C 204.163 11.161,204.229 11.456,205.266 12.392 C 205.670 12.757,206.016 13.140,206.036 13.242 C 206.056 13.345,206.269 13.475,206.510 13.532 C 207.980 13.879,207.573 14.966,205.906 15.143 C 203.417 15.407,203.147 15.490,203.086 16.011 C 203.021 16.573,203.853 21.637,205.714 32.000 C 206.439 36.033,207.340 41.176,207.716 43.429 C 208.983 51.004,209.699 54.303,210.433 55.954 C 210.607 56.346,210.753 56.793,210.756 56.948 C 210.766 57.371,211.698 57.636,212.266 57.377 C 212.993 57.046,214.724 54.452,216.043 51.714 C 216.700 50.352,218.532 46.653,220.115 43.493 C 221.698 40.332,222.878 37.791,222.737 37.845 C 221.918 38.160,219.018 37.081,219.329 36.578 C 219.397 36.468,219.264 36.308,219.032 36.222 C 218.653 36.082,218.781 35.945,220.305 34.858 C 221.237 34.194,222.132 33.539,222.294 33.403 C 222.553 33.184,222.560 32.902,222.351 31.006 C 222.221 29.824,222.110 28.708,222.105 28.526 C 222.098 28.288,222.671 28.622,224.129 29.705 C 225.617 30.809,226.244 31.172,226.463 31.055 C 227.883 30.297,230.688 29.193,230.598 29.428 C 230.535 29.592,230.646 29.792,230.864 29.909 C 231.365 30.176,231.334 30.641,230.683 32.656 C 230.299 33.846,230.181 34.486,230.292 34.779 C 230.380 35.010,230.412 35.238,230.364 35.287 C 230.316 35.335,230.831 35.861,231.509 36.456 C 233.575 38.270,233.439 38.659,230.738 38.664 C 228.413 38.668,228.537 38.315,228.970 43.715 C 229.837 54.502,230.886 59.641,232.266 59.865 C 234.480 60.224,237.554 58.472,240.972 54.903 C 242.581 53.222,246.219 48.709,245.504 49.280 C 244.984 49.695,241.996 48.098,242.217 47.523 C 242.272 47.380,242.135 47.216,241.899 47.141 C 241.324 46.959,241.518 46.833,243.925 45.825 L 246.041 44.939 246.275 42.898 C 246.637 39.743,246.512 39.882,247.842 41.159 C 248.473 41.765,248.942 42.339,248.883 42.434 C 248.825 42.529,249.052 42.868,249.388 43.188 L 250.000 43.770 252.190 43.322 C 254.667 42.816,255.106 42.766,254.677 43.037 C 254.456 43.177,254.503 43.259,254.915 43.446 C 255.608 43.762,255.585 43.867,254.381 45.854 C 253.110 47.953,253.113 47.807,254.286 49.887 C 255.740 52.467,255.629 52.631,252.856 51.990 C 251.791 51.744,250.954 51.637,250.857 51.736 C 250.765 51.829,248.842 58.119,246.584 65.714 C 244.326 73.310,242.394 79.717,242.291 79.952 C 242.052 80.498,241.720 80.491,239.670 79.897 C 234.994 78.540,227.488 77.513,216.476 76.722 C 214.195 76.559,208.871 76.476,200.571 76.476 C 192.271 76.476,186.948 76.559,184.667 76.722 C 173.655 77.513,166.149 78.540,161.473 79.897 C 159.387 80.502,159.095 80.503,158.823 79.906 C 158.643 79.510,158.668 79.358,158.970 79.001 L 159.333 78.571 158.929 78.912 C 158.540 79.240,158.521 79.240,158.433 78.912 C 157.776 76.479,150.383 51.859,150.272 51.736 C 150.184 51.639,149.338 51.747,148.287 51.990 C 146.323 52.444,145.905 52.416,145.905 51.829 C 145.905 51.624,145.783 51.429,145.633 51.395 C 145.435 51.350,145.666 50.791,146.487 49.333 C 147.616 47.328,147.793 46.857,147.417 46.857 C 147.306 46.857,147.269 46.771,147.333 46.667 C 147.398 46.562,147.346 46.476,147.218 46.476 C 147.089 46.476,147.040 46.420,147.108 46.352 C 147.176 46.284,147.084 46.106,146.902 45.957 C 146.681 45.776,146.666 45.727,146.857 45.810 C 147.048 45.892,147.033 45.843,146.812 45.662 C 146.631 45.513,146.536 45.337,146.602 45.271 C 146.667 45.206,146.581 45.098,146.409 45.032 C 146.238 44.966,146.145 44.836,146.203 44.742 C 146.261 44.648,146.203 44.571,146.075 44.571 C 145.946 44.571,145.894 44.519,145.957 44.455 C 146.021 44.391,145.863 44.006,145.606 43.598 C 145.349 43.191,145.203 42.857,145.283 42.858 C 145.493 42.859,149.373 43.612,149.725 43.720 C 149.922 43.781,150.575 43.170,151.677 41.894 C 152.908 40.469,153.333 40.082,153.333 40.387 C 153.333 40.637,153.482 40.836,153.713 40.897 C 154.171 41.017,154.408 41.816,154.587 43.837 L 154.716 45.294 156.324 45.933 C 159.483 47.187,159.611 47.768,157.000 48.994 C 155.214 49.833,155.182 49.908,156.095 51.104 C 156.783 52.004,156.925 52.314,156.542 52.077 C 156.405 51.992,156.374 52.025,156.460 52.164 C 156.536 52.287,156.666 52.345,156.750 52.293 C 156.959 52.164,157.587 52.887,157.453 53.103 C 157.394 53.199,157.578 53.483,157.863 53.734 L 158.381 54.190 157.919 53.667 C 157.665 53.379,157.501 53.143,157.554 53.143 C 157.608 53.143,158.373 53.964,159.254 54.967 C 162.664 58.847,166.993 60.952,168.590 59.507 C 170.194 58.057,171.090 53.130,172.094 40.238 L 172.217 38.667 170.442 38.664 C 168.524 38.661,168.127 38.538,168.223 37.980 C 168.267 37.725,168.188 37.635,167.952 37.675 C 167.405 37.767,167.545 37.554,169.234 35.714 L 170.848 33.955 170.089 31.696 C 169.146 28.889,169.020 29.011,171.640 30.189 L 173.851 31.184 175.904 29.671 C 177.464 28.522,177.932 28.256,177.851 28.566 C 177.769 28.878,177.858 29.016,178.232 29.159 C 178.753 29.357,178.767 29.770,178.361 32.952 L 178.252 33.810 179.718 34.857 C 182.483 36.833,182.515 37.075,180.082 37.617 C 179.356 37.779,178.569 37.954,178.333 38.007 C 178.098 38.059,177.905 38.184,177.905 38.283 C 177.905 38.690,186.129 55.039,186.865 56.095 C 187.565 57.099,187.594 57.180,187.108 56.762 C 186.702 56.413,186.721 56.452,187.179 56.905 C 189.592 59.295,190.871 56.167,193.234 42.095 C 193.718 39.214,194.535 34.543,195.049 31.714 C 195.563 28.886,196.376 24.257,196.855 21.429 C 197.334 18.600,197.775 16.039,197.835 15.738 C 197.902 15.408,197.872 15.236,197.761 15.304 C 197.566 15.425,194.693 15.142,194.056 14.940 C 193.796 14.857,193.710 14.705,193.777 14.446 C 193.844 14.190,193.755 14.028,193.495 13.931 C 193.164 13.809,193.347 13.581,194.891 12.187 C 195.868 11.304,196.649 10.452,196.628 10.291 C 196.607 10.131,196.380 9.036,196.124 7.857 C 195.868 6.679,195.688 5.714,195.723 5.714 C 195.759 5.714,196.732 6.267,197.887 6.942 M229.714 36.952 L 227.714 37.068 229.762 37.106 C 231.025 37.129,231.810 37.070,231.810 36.952 C 231.810 36.848,231.788 36.779,231.762 36.799 C 231.736 36.820,230.814 36.889,229.714 36.952 M169.853 37.090 C 170.191 37.132,170.791 37.133,171.186 37.091 C 171.581 37.050,171.305 37.016,170.571 37.015 C 169.838 37.014,169.515 37.048,169.853 37.090 M179.809 44.069 C 181.433 47.354,182.786 50.022,182.816 49.998 C 182.993 49.856,177.200 38.095,176.953 38.095 C 176.900 38.095,178.185 40.783,179.809 44.069 M227.286 40.095 C 227.288 40.514,227.327 40.663,227.373 40.426 C 227.418 40.189,227.417 39.847,227.369 39.664 C 227.321 39.482,227.284 39.676,227.286 40.095 M227.477 42.571 C 227.479 42.990,227.518 43.139,227.563 42.903 C 227.609 42.666,227.607 42.323,227.559 42.141 C 227.512 41.959,227.474 42.152,227.477 42.571 M227.663 44.952 C 227.663 45.319,227.702 45.469,227.750 45.286 C 227.798 45.102,227.798 44.802,227.750 44.619 C 227.702 44.436,227.663 44.586,227.663 44.952 M252.206 47.714 C 252.530 48.123,253.714 50.215,253.714 50.378 C 253.714 50.432,253.521 50.486,253.286 50.498 C 252.933 50.516,252.920 50.536,253.211 50.611 C 254.147 50.852,253.475 48.658,252.312 47.677 C 251.912 47.340,251.910 47.341,252.206 47.714 M244.016 47.680 C 244.319 47.912,245.524 48.541,245.524 48.467 C 245.524 48.340,244.325 47.621,244.111 47.620 C 244.015 47.619,243.972 47.646,244.016 47.680 M182.857 50.379 C 182.857 50.660,184.743 53.973,185.197 54.490 C 185.429 54.754,185.559 54.877,185.485 54.762 C 185.411 54.647,184.790 53.576,184.104 52.382 C 183.418 51.187,182.857 50.286,182.857 50.379 M209.316 55.587 C 209.419 55.779,209.653 56.058,209.836 56.206 C 210.041 56.373,209.995 56.240,209.715 55.857 C 209.215 55.174,209.027 55.047,209.316 55.587 M229.909 57.831 C 229.915 58.054,230.657 59.000,230.662 58.792 C 230.665 58.704,230.495 58.414,230.286 58.147 C 230.076 57.881,229.907 57.739,229.909 57.831 M190.143 74.803 C 190.431 74.847,190.902 74.847,191.190 74.803 C 191.479 74.759,191.243 74.724,190.667 74.724 C 190.090 74.724,189.855 74.759,190.143 74.803 M208.337 74.805 C 208.679 74.847,209.193 74.846,209.480 74.803 C 209.766 74.759,209.486 74.725,208.857 74.726 C 208.229 74.727,207.994 74.762,208.337 74.805 M185.669 74.992 C 185.906 75.037,186.249 75.036,186.431 74.988 C 186.613 74.940,186.419 74.903,186.000 74.905 C 185.581 74.907,185.432 74.946,185.669 74.992 M213.095 74.992 C 213.331 75.037,213.717 75.037,213.952 74.992 C 214.188 74.946,213.995 74.909,213.524 74.909 C 213.052 74.909,212.860 74.946,213.095 74.992 M216.429 75.179 C 216.612 75.227,216.912 75.227,217.095 75.179 C 217.279 75.131,217.129 75.092,216.762 75.092 C 216.395 75.092,216.245 75.131,216.429 75.179 M212.952 81.154 C 224.820 81.769,239.938 84.030,239.520 85.129 C 239.434 85.356,239.460 85.375,239.627 85.209 C 239.946 84.893,240.572 85.478,240.569 86.090 C 240.566 86.818,239.296 90.881,238.969 91.207 C 238.715 91.462,238.499 91.438,237.008 90.985 C 222.218 86.496,178.799 86.497,164.118 90.987 L 162.426 91.504 162.062 91.054 C 161.862 90.806,161.739 90.495,161.790 90.362 C 161.842 90.229,161.812 90.093,161.724 90.060 C 161.600 90.013,160.254 85.822,160.124 85.076 C 160.033 84.556,168.342 82.920,175.238 82.101 C 185.235 80.914,200.778 80.524,212.952 81.154 M190.622 86.043 C 190.965 86.085,191.479 86.084,191.765 86.041 C 192.052 85.997,191.771 85.963,191.143 85.964 C 190.514 85.965,190.280 86.000,190.622 86.043 M205.281 86.042 C 205.620 86.084,206.220 86.085,206.615 86.044 C 207.010 86.003,206.733 85.968,206.000 85.967 C 205.267 85.966,204.943 86.000,205.281 86.042 M186.050 86.230 C 186.287 86.276,186.630 86.274,186.812 86.226 C 186.994 86.178,186.800 86.141,186.381 86.143 C 185.962 86.145,185.813 86.184,186.050 86.230 M210.619 86.230 C 210.855 86.275,211.240 86.275,211.476 86.230 C 211.712 86.184,211.519 86.147,211.048 86.147 C 210.576 86.147,210.383 86.184,210.619 86.230 M214.333 86.417 C 214.517 86.465,214.817 86.465,215.000 86.417 C 215.183 86.369,215.033 86.330,214.667 86.330 C 214.300 86.330,214.150 86.369,214.333 86.417 M217.190 86.607 C 217.374 86.655,217.674 86.655,217.857 86.607 C 218.040 86.560,217.890 86.520,217.524 86.520 C 217.157 86.520,217.007 86.560,217.190 86.607 M95.238 98.208 C 95.238 98.374,95.407 98.653,95.614 98.827 C 96.125 99.256,97.921 113.521,97.525 113.999 C 97.034 114.590,96.000 114.015,96.000 113.151 C 96.000 112.948,95.777 112.070,95.505 111.200 C 94.173 106.948,91.816 104.579,88.762 104.424 C 86.006 104.283,85.507 105.092,85.349 109.963 L 85.238 113.382 86.716 113.280 C 89.408 113.095,90.381 112.106,90.608 109.320 C 90.672 108.541,90.818 107.842,90.933 107.765 C 91.315 107.510,91.619 107.614,91.619 108.000 C 91.619 108.210,91.742 108.381,91.892 108.381 C 92.314 108.381,92.346 108.599,93.141 116.959 C 93.912 125.063,93.913 125.524,93.158 125.524 C 92.709 125.524,92.325 124.921,92.004 123.714 C 91.003 119.948,89.573 118.583,86.757 118.705 L 85.429 118.762 85.429 127.238 C 85.429 138.115,85.472 138.286,88.226 138.286 C 92.248 138.286,95.745 134.283,97.733 127.406 C 98.196 125.801,98.408 125.710,99.271 126.742 C 99.757 127.323,99.751 127.375,98.190 135.810 C 96.476 145.065,96.580 144.754,95.429 144.095 C 95.033 143.869,93.306 143.822,85.275 143.816 L 75.598 143.810 75.029 143.190 C 74.651 142.779,74.494 142.444,74.561 142.190 C 74.616 141.981,74.663 141.657,74.664 141.471 C 74.665 141.286,74.863 141.059,75.103 140.968 C 76.661 140.375,76.667 140.306,76.667 120.857 C 76.667 101.861,76.732 102.797,75.303 101.368 C 74.665 100.730,74.474 100.411,74.554 100.113 C 74.613 99.894,74.663 99.521,74.664 99.286 L 74.667 98.857 84.209 98.857 C 94.069 98.857,94.857 98.798,94.857 98.054 C 94.857 97.972,94.943 97.905,95.048 97.905 C 95.152 97.905,95.238 98.041,95.238 98.208 M356.762 99.261 C 356.762 99.470,356.843 99.591,356.943 99.530 C 357.407 99.243,358.748 112.796,358.395 114.202 C 358.253 114.767,357.393 114.861,357.198 114.333 C 357.131 114.150,357.025 113.957,356.963 113.905 C 356.902 113.852,356.650 113.167,356.403 112.381 C 354.623 106.708,350.798 103.733,347.318 105.314 C 339.459 108.883,340.946 138.476,348.984 138.476 C 351.688 138.476,352.156 136.675,352.000 126.857 C 351.896 120.321,351.895 120.313,350.767 119.647 C 350.397 119.429,350.095 119.119,350.095 118.959 C 350.095 118.798,350.010 118.667,349.905 118.667 C 349.800 118.667,349.714 118.281,349.714 117.810 L 349.714 116.952 355.476 116.950 C 358.645 116.948,361.431 116.895,361.667 116.832 C 361.961 116.753,362.095 116.801,362.095 116.983 C 362.095 117.129,362.267 117.395,362.476 117.575 C 363.217 118.209,362.975 119.108,361.888 119.769 C 360.487 120.619,360.476 120.699,360.476 130.375 C 360.476 139.987,360.475 139.972,361.526 141.104 C 362.369 142.011,362.542 142.954,361.972 143.525 C 361.506 143.990,347.023 143.846,345.160 143.358 C 336.283 141.032,330.863 126.797,333.445 112.595 C 335.400 101.847,343.182 96.588,352.505 99.718 C 354.522 100.395,355.050 100.354,355.835 99.460 C 356.512 98.688,356.762 98.634,356.762 99.261 M49.524 99.097 C 49.524 99.229,49.695 99.444,49.905 99.575 C 50.562 99.986,50.427 101.180,49.657 101.768 C 48.632 102.550,48.522 103.168,48.432 108.667 C 48.381 111.841,48.418 113.551,48.535 113.429 C 48.984 112.962,52.483 107.185,53.149 105.810 C 54.275 103.487,54.316 102.862,53.404 101.922 C 52.235 100.717,52.192 100.638,52.250 99.772 L 52.305 98.952 57.867 98.902 C 62.314 98.862,63.429 98.901,63.429 99.098 C 63.429 99.233,63.600 99.491,63.810 99.670 C 64.617 100.362,64.226 101.406,62.930 102.019 C 60.859 102.999,59.074 104.858,56.382 108.839 C 55.027 110.844,55.046 110.673,55.977 112.528 C 58.570 117.694,60.628 123.955,62.377 132.000 C 64.131 140.063,64.366 140.778,65.305 140.918 C 65.530 140.951,65.714 141.082,65.714 141.209 C 65.714 141.336,65.886 141.586,66.095 141.765 C 66.609 142.205,66.616 143.340,66.108 143.612 C 65.876 143.736,63.503 143.810,59.714 143.810 C 53.685 143.810,52.952 143.737,52.952 143.136 C 52.952 142.983,52.867 142.857,52.762 142.857 C 52.303 142.857,52.553 141.155,53.030 141.035 C 55.004 140.540,54.696 136.093,52.094 127.524 C 50.379 121.872,49.403 119.950,48.770 120.973 C 47.846 122.466,48.375 140.647,49.350 140.902 C 50.218 141.129,50.842 142.854,50.294 143.514 C 49.927 143.956,38.427 143.960,38.055 143.517 C 37.920 143.356,37.710 143.113,37.589 142.977 C 37.144 142.476,37.371 141.185,37.924 141.073 C 39.590 140.737,39.643 140.067,39.579 120.309 C 39.518 101.673,39.553 102.214,38.391 101.684 C 38.124 101.562,37.905 101.397,37.905 101.316 C 37.905 101.236,37.777 101.042,37.621 100.886 C 37.411 100.676,37.368 100.373,37.456 99.729 L 37.576 98.857 43.550 98.857 C 48.226 98.857,49.524 98.909,49.524 99.097 M128.190 99.313 C 133.801 101.138,133.576 110.447,127.804 115.352 C 126.490 116.468,126.498 116.374,127.661 117.048 C 136.795 122.342,136.658 140.205,127.461 143.275 C 126.236 143.684,125.881 143.702,117.582 143.767 C 108.836 143.835,108.190 143.792,108.190 143.136 C 108.190 142.983,108.105 142.857,108.000 142.857 C 107.487 142.857,107.801 141.126,108.349 140.935 C 109.867 140.406,109.927 139.588,109.864 120.095 C 109.806 102.149,109.806 102.147,108.875 101.790 C 108.392 101.605,107.810 100.404,107.810 99.596 L 107.810 98.832 117.476 98.902 C 126.124 98.965,127.253 99.008,128.190 99.313 M163.230 99.459 C 163.770 100.189,163.777 100.957,163.251 101.696 C 162.585 102.631,162.553 102.402,165.525 117.810 C 169.916 140.577,169.714 139.716,170.977 141.098 C 171.839 142.042,172.090 143.072,171.581 143.581 C 171.282 143.880,159.208 143.909,158.654 143.612 C 158.452 143.504,158.286 143.290,158.286 143.136 C 158.286 142.983,158.200 142.857,158.095 142.857 C 157.647 142.857,157.885 141.141,158.359 140.961 C 160.441 140.169,160.481 135.218,158.433 131.639 C 156.759 128.713,152.687 125.973,151.901 127.244 C 151.474 127.935,150.043 136.447,150.022 138.416 L 150.000 140.546 150.732 141.199 C 151.527 141.907,151.752 142.905,151.252 143.507 C 150.883 143.952,143.380 143.961,143.008 143.517 C 142.872 143.356,142.654 143.105,142.523 142.959 C 142.057 142.440,142.355 141.238,143.114 140.571 C 144.482 139.370,145.153 137.372,146.855 129.429 C 147.372 127.019,148.869 120.052,150.183 113.947 C 152.844 101.580,152.736 102.295,152.110 101.201 C 151.757 100.583,151.676 100.225,151.756 99.629 L 151.860 98.857 157.323 98.857 L 162.786 98.857 163.230 99.459 M200.556 99.313 C 205.860 101.061,206.051 109.327,200.908 114.556 C 199.886 115.596,199.070 116.456,199.096 116.468 C 209.323 121.270,209.356 140.755,199.143 143.462 C 197.363 143.934,180.957 143.819,180.688 143.333 C 180.571 143.124,180.389 142.895,180.283 142.825 C 179.926 142.590,180.183 140.952,180.577 140.952 C 180.768 140.952,181.094 140.737,181.301 140.474 C 182.176 139.362,182.190 139.032,182.190 120.857 C 182.190 102.201,182.205 102.471,181.138 101.711 C 180.826 101.489,180.571 101.185,180.571 101.035 C 180.571 100.885,180.486 100.762,180.381 100.762 C 180.276 100.762,180.190 100.328,180.190 99.797 L 180.190 98.832 189.857 98.902 C 198.507 98.965,199.632 99.008,200.556 99.313 M253.333 99.097 C 253.333 99.229,253.505 99.444,253.714 99.575 C 254.394 100.000,254.228 101.077,253.359 101.886 C 252.725 102.476,252.593 102.744,252.414 103.810 C 252.204 105.067,251.872 114.079,252.043 113.905 C 252.094 113.852,252.862 112.652,253.750 111.238 C 257.894 104.633,258.463 103.151,257.285 102.022 C 256.327 101.105,256.014 100.505,256.066 99.688 L 256.113 98.952 261.675 98.902 C 266.123 98.862,267.238 98.901,267.238 99.098 C 267.238 99.233,267.410 99.491,267.619 99.670 C 268.412 100.349,267.941 101.468,266.612 102.061 C 264.791 102.874,262.999 104.738,260.323 108.606 C 258.825 110.772,258.842 110.646,259.786 112.528 C 262.379 117.694,264.437 123.955,266.187 132.000 C 267.941 140.063,268.176 140.778,269.114 140.918 C 269.340 140.951,269.524 141.082,269.524 141.209 C 269.524 141.336,269.695 141.586,269.905 141.765 C 270.418 142.205,270.426 143.340,269.917 143.612 C 269.686 143.736,267.313 143.810,263.524 143.810 C 257.494 143.810,256.762 143.737,256.762 143.136 C 256.762 142.983,256.676 142.857,256.571 142.857 C 256.112 142.857,256.362 141.155,256.839 141.035 C 258.553 140.605,258.603 138.350,257.045 131.714 C 256.041 127.440,253.531 120.283,253.088 120.431 C 251.459 120.974,251.591 140.952,253.223 140.952 C 253.593 140.952,254.349 142.120,254.349 142.692 C 254.349 143.832,254.424 143.820,247.927 143.765 L 242.000 143.714 241.812 143.286 C 241.709 143.050,241.559 142.857,241.479 142.857 C 241.399 142.857,241.333 142.471,241.333 142.000 C 241.333 141.389,241.411 141.143,241.602 141.143 C 242.011 141.143,242.818 140.080,243.090 139.182 C 243.280 138.558,243.333 134.559,243.333 121.048 C 243.333 102.185,243.349 102.471,242.281 101.711 C 241.969 101.489,241.714 101.185,241.714 101.035 C 241.714 100.885,241.629 100.762,241.524 100.762 C 241.419 100.762,241.333 100.333,241.333 99.810 L 241.333 98.857 247.333 98.857 C 252.030 98.857,253.333 98.909,253.333 99.097 M290.476 99.101 C 290.476 99.234,290.648 99.491,290.857 99.670 C 291.469 100.194,291.339 100.904,290.488 101.689 C 289.199 102.877,289.238 102.253,289.238 121.714 C 289.238 140.206,289.260 140.679,290.108 140.901 C 290.311 140.954,290.476 141.073,290.476 141.165 C 290.476 141.258,290.648 141.505,290.857 141.714 C 291.313 142.170,291.355 143.094,290.939 143.510 C 290.494 143.955,279.381 143.962,279.008 143.517 C 278.872 143.356,278.655 143.106,278.525 142.961 C 278.100 142.486,278.309 141.058,278.814 140.986 C 280.352 140.768,280.383 140.342,280.331 120.571 C 280.283 101.987,280.295 102.229,279.361 101.729 C 278.616 101.330,278.031 99.644,278.414 99.000 C 278.575 98.729,290.476 98.828,290.476 99.101 M314.286 99.470 C 314.843 100.224,314.851 101.135,314.305 101.829 C 313.433 102.937,313.661 103.809,316.303 109.462 C 317.323 111.644,318.273 113.729,318.415 114.095 C 318.639 114.674,318.663 114.061,318.594 109.429 C 318.499 103.122,318.431 102.756,317.122 101.468 C 316.531 100.886,316.208 100.421,316.274 100.248 C 316.333 100.094,316.381 99.719,316.381 99.413 L 316.381 98.857 320.190 98.857 C 323.126 98.857,324.000 98.912,324.000 99.097 C 324.000 99.229,324.171 99.444,324.381 99.575 C 325.039 99.986,324.885 100.956,324.024 101.835 C 322.838 103.045,322.857 102.726,322.857 121.507 C 322.857 140.301,322.844 140.076,324.003 141.189 C 324.635 141.797,324.762 142.044,324.762 142.667 C 324.762 143.744,324.525 143.810,320.626 143.810 L 317.228 143.810 316.732 143.244 C 316.033 142.448,316.158 141.183,316.981 140.710 C 318.252 139.981,318.584 137.423,317.808 134.343 C 317.291 132.295,306.233 109.637,305.817 109.775 C 305.683 109.820,305.602 113.879,305.566 122.302 C 305.502 137.265,305.704 140.952,306.590 140.952 C 306.737 140.952,306.857 141.060,306.857 141.192 C 306.857 141.324,307.029 141.539,307.238 141.670 C 307.767 142.000,307.776 143.331,307.251 143.612 C 306.173 144.189,299.810 143.782,299.810 143.136 C 299.810 142.983,299.724 142.857,299.619 142.857 C 299.106 142.857,299.420 141.126,299.968 140.935 C 301.487 140.406,301.546 139.588,301.483 120.095 C 301.424 102.010,301.448 102.431,300.445 101.692 C 299.829 101.238,299.429 100.423,299.429 99.626 L 299.429 98.857 306.631 98.857 L 313.833 98.857 314.286 99.470 M119.714 104.561 C 118.606 105.015,118.576 105.159,118.512 110.443 C 118.470 113.847,118.383 115.406,118.226 115.597 C 117.579 116.378,120.571 114.211,121.491 113.232 C 125.470 108.998,124.185 102.731,119.714 104.561 M192.095 104.551 C 190.982 105.036,190.957 105.158,190.895 110.440 C 190.856 113.844,190.770 115.399,190.613 115.589 C 190.019 116.304,192.622 114.444,193.670 113.404 C 196.382 110.713,197.200 106.458,195.287 104.999 C 194.582 104.462,192.855 104.219,192.095 104.551 M154.977 111.557 C 154.794 112.165,153.307 120.228,153.369 120.281 C 153.402 120.309,153.829 120.506,154.319 120.720 C 154.809 120.934,155.580 121.440,156.033 121.846 C 157.455 123.117,157.600 123.208,157.450 122.735 C 157.379 122.512,156.858 119.867,156.291 116.858 C 155.238 111.267,155.160 110.953,154.977 111.557 M120.190 120.679 C 119.405 121.163,118.696 121.659,118.616 121.780 C 118.275 122.296,118.549 137.678,118.905 138.035 C 119.680 138.809,122.501 137.991,123.478 136.710 C 126.377 132.905,126.181 124.941,123.088 120.857 C 122.161 119.632,121.911 119.617,120.190 120.679 M192.594 120.650 C 190.724 121.763,190.863 121.058,190.861 129.429 C 190.859 138.627,190.819 138.430,192.667 138.304 C 198.046 137.939,199.862 126.866,195.512 120.957 C 194.502 119.585,194.402 119.574,192.594 120.650 " stroke="none" fill="#73bb43" fill-rule="evenodd"></path><path id="path1" d="M94.778 98.237 C 94.448 99.274,94.804 99.238,84.882 99.238 C 75.170 99.238,74.671 99.280,74.668 100.098 C 74.667 100.314,74.854 100.563,75.095 100.669 C 75.988 101.061,76.411 102.423,76.591 105.481 C 76.825 109.483,76.787 138.958,76.546 139.880 C 76.359 140.598,75.376 141.714,74.932 141.714 C 74.811 141.714,74.669 141.937,74.617 142.208 C 74.529 142.666,74.559 142.691,75.023 142.550 C 75.298 142.466,79.724 142.393,84.857 142.389 L 94.190 142.381 94.786 142.806 L 95.382 143.231 95.510 142.616 C 95.580 142.277,96.189 139.086,96.864 135.524 C 97.538 131.962,98.227 128.576,98.395 128.000 C 98.775 126.699,98.817 126.248,98.568 126.161 C 98.461 126.123,98.138 126.961,97.850 128.023 C 96.018 134.772,92.694 138.667,88.766 138.667 C 88.148 138.667,87.593 138.588,87.533 138.491 C 87.473 138.394,87.180 138.261,86.882 138.196 C 85.743 137.946,84.754 136.315,84.394 134.094 C 84.114 132.368,84.120 117.590,84.400 117.417 C 84.876 117.122,87.514 117.339,88.285 117.736 C 89.855 118.545,91.351 120.885,92.015 123.571 C 92.151 124.121,92.334 124.571,92.422 124.571 C 92.615 124.571,92.989 123.641,92.872 123.452 C 92.758 123.268,91.648 111.556,91.545 109.462 C 91.425 106.991,90.862 107.245,90.853 109.774 C 90.846 111.717,89.700 113.489,88.414 113.547 C 84.275 113.731,84.099 113.521,84.222 108.518 C 84.333 104.009,84.952 102.976,87.547 102.976 C 90.961 102.976,94.587 106.851,95.723 111.714 C 96.188 113.706,96.181 113.693,96.505 113.079 C 96.741 112.633,96.755 112.319,96.585 111.270 C 96.186 108.808,95.059 99.292,95.124 98.934 C 95.240 98.298,94.946 97.707,94.778 98.237 M356.231 99.378 C 355.916 100.416,354.795 100.976,354.181 100.402 C 351.975 98.340,343.977 98.968,340.286 101.493 C 331.575 107.451,330.316 127.624,338.016 137.855 C 341.033 141.864,342.480 142.286,353.216 142.286 L 360.734 142.286 361.139 141.771 L 361.545 141.256 360.863 140.675 C 359.403 139.433,359.357 139.106,359.294 129.524 C 359.228 119.623,359.222 119.665,360.850 118.441 C 362.105 117.497,362.494 116.331,361.350 116.944 C 361.117 117.068,359.080 117.143,355.933 117.143 C 351.478 117.143,350.819 117.182,350.302 117.476 C 349.589 117.882,349.534 118.424,350.191 118.589 C 351.776 118.986,351.972 120.118,352.040 129.252 L 352.095 136.694 351.588 137.460 C 349.316 140.894,344.477 137.328,342.598 130.834 C 340.254 122.732,340.439 113.258,343.051 107.667 C 346.413 100.468,353.384 102.906,356.479 112.362 C 357.038 114.070,357.663 114.083,357.428 112.381 C 357.314 111.560,356.593 101.515,356.526 99.810 L 356.476 98.571 356.231 99.378 M48.667 99.048 C 48.593 99.167,46.664 99.238,43.510 99.238 C 39.833 99.238,38.356 99.302,38.045 99.476 C 37.163 99.969,37.099 100.477,37.898 100.637 C 39.539 100.965,39.619 101.972,39.619 122.401 C 39.619 141.717,39.710 140.494,38.202 141.556 C 37.724 141.893,37.333 142.259,37.333 142.370 C 37.333 142.768,48.578 142.526,49.143 142.115 C 49.817 141.626,49.829 141.237,49.180 140.968 C 47.538 140.287,47.238 138.337,47.238 128.322 L 47.238 120.247 47.673 119.600 C 48.472 118.412,48.757 118.592,49.758 120.913 C 52.128 126.406,53.548 131.701,54.479 138.527 C 54.745 140.474,54.607 140.839,53.334 141.566 C 52.413 142.092,52.188 142.993,53.060 142.662 C 53.337 142.557,55.976 142.476,59.164 142.476 L 64.779 142.476 65.247 142.009 C 65.863 141.392,65.839 141.264,65.053 140.980 C 63.735 140.504,63.151 139.184,62.173 134.476 C 59.939 123.717,57.144 115.033,54.556 110.814 C 53.772 109.535,53.670 109.859,55.853 106.711 C 57.791 103.917,60.045 101.621,61.712 100.745 C 62.588 100.285,63.001 99.944,63.129 99.575 C 63.350 98.937,63.154 98.699,62.661 99.007 C 62.398 99.171,60.997 99.238,57.841 99.238 C 54.176 99.238,53.286 99.291,52.791 99.538 C 52.040 99.913,52.011 100.451,52.726 100.747 C 53.629 101.121,54.450 103.160,54.211 104.434 C 54.038 105.356,52.706 107.850,50.578 111.238 C 47.207 116.605,47.144 116.532,47.278 107.429 C 47.360 101.866,47.391 101.697,48.562 100.476 C 49.470 99.529,49.721 98.857,49.167 98.857 C 48.957 98.857,48.731 98.943,48.667 99.048 M162.000 99.048 C 161.927 99.166,160.134 99.238,157.255 99.238 L 152.627 99.238 152.123 99.705 C 151.559 100.228,151.497 100.480,151.877 100.705 C 153.211 101.492,153.134 102.093,149.632 118.381 C 145.038 139.744,145.183 139.216,143.382 141.024 C 142.349 142.062,141.989 142.902,142.678 142.669 C 142.829 142.618,144.508 142.532,146.409 142.479 C 149.459 142.392,149.913 142.338,150.266 142.018 C 150.721 141.606,150.802 140.952,150.398 140.952 C 150.015 140.952,149.217 139.943,148.942 139.112 C 148.583 138.023,148.837 135.489,149.808 130.476 C 150.883 124.929,150.903 124.906,153.476 126.192 C 158.841 128.877,162.282 138.826,158.727 141.379 C 157.097 142.550,157.219 142.577,163.762 142.521 C 170.339 142.465,170.351 142.464,170.789 141.795 C 171.101 141.319,171.094 141.300,170.405 140.732 C 168.975 139.553,168.802 138.956,166.669 127.810 C 166.138 125.033,165.581 122.162,165.431 121.429 C 165.084 119.727,163.241 110.200,162.465 106.095 C 161.570 101.367,161.565 101.205,162.268 100.240 C 162.592 99.795,162.857 99.303,162.857 99.145 C 162.857 98.825,162.185 98.749,162.000 99.048 M252.476 99.048 C 252.403 99.167,250.478 99.238,247.333 99.238 C 244.189 99.238,242.264 99.309,242.190 99.429 C 242.126 99.533,241.906 99.619,241.703 99.619 C 241.116 99.619,241.205 100.498,241.807 100.649 C 242.464 100.814,242.975 101.907,243.221 103.679 C 243.554 106.075,243.510 139.436,243.172 140.244 C 242.917 140.856,241.866 141.905,241.509 141.905 C 241.412 141.905,241.333 142.117,241.333 142.376 C 241.333 142.804,241.379 142.830,241.822 142.662 C 242.095 142.558,244.559 142.476,247.415 142.476 C 252.291 142.476,252.543 142.458,253.022 142.081 C 253.669 141.572,253.646 141.325,252.907 140.857 C 251.281 139.829,251.072 138.442,251.037 128.452 C 251.008 120.198,251.020 120.048,251.768 119.190 C 252.367 118.505,252.649 118.782,253.604 120.997 C 255.687 125.824,257.449 132.149,258.076 137.048 C 258.184 137.886,258.329 138.976,258.399 139.471 C 258.536 140.436,257.924 141.309,256.815 141.730 C 256.523 141.841,256.381 142.051,256.381 142.372 C 256.381 142.804,256.426 142.831,256.870 142.662 C 257.147 142.557,259.786 142.476,262.973 142.476 L 268.589 142.476 269.056 142.009 C 269.679 141.386,269.647 141.213,268.860 140.953 C 267.551 140.521,266.963 139.198,265.983 134.476 C 263.747 123.707,260.953 115.033,258.359 110.804 L 257.684 109.702 258.096 109.004 C 260.114 105.583,263.616 101.639,265.404 100.774 C 266.453 100.266,267.048 99.698,267.048 99.202 C 267.048 98.836,266.579 98.727,266.381 99.048 C 266.308 99.166,264.547 99.238,261.732 99.238 C 257.993 99.238,257.096 99.290,256.601 99.538 C 255.914 99.880,255.801 100.482,256.387 100.669 C 257.319 100.964,258.244 103.011,258.033 104.310 C 257.789 105.815,252.728 114.339,251.804 114.801 C 251.116 115.145,251.015 114.136,251.089 107.714 C 251.158 101.794,251.199 101.568,252.434 100.368 C 253.281 99.546,253.528 98.857,252.976 98.857 C 252.766 98.857,252.541 98.943,252.476 99.048 M289.619 99.048 C 289.545 99.167,287.627 99.238,284.494 99.238 C 280.321 99.238,279.387 99.288,278.886 99.538 C 278.124 99.918,278.112 100.422,278.860 100.705 C 279.496 100.945,279.901 101.711,280.186 103.213 C 280.431 104.505,280.472 139.586,280.230 140.190 C 280.016 140.723,279.128 141.597,278.619 141.776 C 278.436 141.840,278.286 142.045,278.286 142.232 C 278.285 142.803,289.238 142.630,289.857 142.049 C 290.390 141.550,290.424 140.952,289.919 140.952 C 289.370 140.952,288.847 140.157,288.450 138.716 C 288.116 137.504,288.095 136.418,288.095 120.095 C 288.095 100.737,288.030 101.693,289.432 100.357 C 290.275 99.553,290.544 98.857,290.011 98.857 C 289.860 98.857,289.684 98.943,289.619 99.048 M313.048 99.048 C 312.973 99.168,310.674 99.238,306.780 99.238 C 301.568 99.238,300.538 99.284,300.029 99.538 C 299.298 99.903,299.232 100.481,299.902 100.649 C 301.437 101.034,301.512 102.018,301.531 122.150 C 301.550 141.784,301.639 140.544,300.143 141.508 C 299.214 142.107,299.141 142.772,300.024 142.595 C 300.351 142.530,301.812 142.476,303.271 142.476 C 305.832 142.476,305.938 142.460,306.390 142.009 C 307.000 141.398,306.982 141.025,306.333 140.895 C 305.686 140.764,305.252 140.058,304.832 138.453 C 304.407 136.826,304.214 109.684,304.616 108.095 L 304.857 107.143 311.094 119.714 C 317.433 132.490,317.953 133.700,318.183 136.190 C 318.236 136.767,318.333 137.678,318.397 138.215 C 318.550 139.489,318.049 140.675,317.080 141.335 C 316.288 141.874,315.991 143.079,316.749 142.673 C 316.958 142.562,318.406 142.476,320.091 142.476 C 322.995 142.476,323.076 142.465,323.532 142.009 C 324.152 141.389,324.117 141.106,323.377 140.762 C 322.904 140.542,322.652 140.212,322.286 139.333 L 321.810 138.190 321.756 120.772 C 321.695 100.945,321.645 101.733,323.069 100.360 C 323.581 99.867,324.000 99.327,324.000 99.160 C 324.000 98.827,323.333 98.739,323.143 99.048 C 323.073 99.160,321.923 99.238,320.336 99.238 C 317.283 99.238,316.381 99.442,316.381 100.134 C 316.381 100.374,316.495 100.571,316.633 100.571 C 318.094 100.571,318.718 103.821,318.627 110.952 L 318.571 115.333 317.787 113.714 C 312.467 102.734,312.209 101.949,313.363 100.251 C 313.661 99.813,313.905 99.321,313.905 99.156 C 313.905 98.826,313.237 98.742,313.048 99.048 M117.714 99.181 C 110.396 99.232,108.951 99.287,108.429 99.534 C 107.668 99.895,107.600 100.478,108.300 100.653 C 109.812 101.033,109.899 102.183,109.908 122.134 C 109.917 141.616,109.992 140.511,108.586 141.441 C 107.621 142.080,107.440 142.957,108.333 142.667 C 108.621 142.574,112.457 142.461,116.857 142.416 C 125.615 142.327,126.246 142.253,128.239 141.085 C 133.054 138.263,134.894 128.220,131.783 121.744 C 130.742 119.576,128.892 117.695,126.762 116.636 C 125.085 115.803,124.941 115.500,125.878 114.777 C 131.516 110.430,133.140 102.083,128.818 99.667 C 127.821 99.109,127.846 99.110,117.714 99.181 M190.008 99.181 C 184.570 99.219,181.182 99.313,181.065 99.431 C 180.961 99.534,180.722 99.619,180.533 99.619 C 180.295 99.619,180.190 99.764,180.190 100.095 C 180.190 100.364,180.301 100.571,180.443 100.571 C 180.866 100.571,181.530 101.427,181.866 102.406 C 182.261 103.559,182.472 138.599,182.092 140.011 C 181.935 140.593,181.675 140.932,181.037 141.381 C 180.170 141.992,179.731 143.115,180.524 142.693 C 180.707 142.596,184.500 142.474,188.952 142.423 C 200.231 142.295,201.730 141.763,203.986 137.097 C 207.704 129.406,205.381 119.772,199.043 116.593 C 197.308 115.724,197.296 115.508,198.899 114.206 C 204.788 109.425,205.229 99.561,199.572 99.176 C 199.126 99.145,194.822 99.148,190.008 99.181 M121.792 103.491 C 123.406 104.387,124.457 107.085,124.105 109.430 C 123.567 113.014,118.418 117.544,117.564 115.184 C 117.212 114.210,117.244 105.153,117.603 104.295 C 118.183 102.907,120.083 102.542,121.792 103.491 M193.381 103.129 C 197.412 104.567,197.570 110.633,193.669 114.181 C 191.544 116.114,190.532 116.417,189.936 115.298 C 189.574 114.618,189.631 104.903,190.002 104.187 C 190.563 103.103,192.025 102.645,193.381 103.129 M156.091 115.429 C 156.804 119.252,157.429 122.630,157.481 122.934 C 157.571 123.457,157.514 123.426,156.455 122.382 C 155.387 121.329,153.449 120.191,152.723 120.191 C 152.079 120.190,152.139 119.079,153.046 114.282 C 153.531 111.718,154.052 109.429,154.202 109.197 C 154.353 108.965,154.476 108.627,154.476 108.445 C 154.476 107.266,154.956 109.343,156.091 115.429 M121.816 118.810 C 124.307 121.430,125.380 124.647,125.614 130.190 C 125.867 136.182,122.554 140.176,118.952 138.223 C 117.444 137.404,117.436 137.361,117.371 128.471 L 117.314 120.656 117.752 120.260 C 118.318 119.749,120.788 118.288,121.088 118.287 C 121.214 118.286,121.542 118.521,121.816 118.810 M193.822 118.431 C 198.030 121.326,199.476 133.370,196.069 137.148 C 194.951 138.388,192.361 139.214,191.905 138.476 C 191.840 138.371,191.628 138.286,191.434 138.286 C 189.987 138.286,189.714 136.642,189.714 127.929 L 189.714 120.638 190.143 120.251 C 190.667 119.778,193.165 118.287,193.429 118.290 C 193.533 118.291,193.711 118.355,193.822 118.431 " stroke="none" fill="#ba2122" fill-rule="evenodd"></path><path id="path2" d="M196.124 7.857 C 196.380 9.036,196.607 10.131,196.628 10.291 C 196.649 10.452,195.866 11.306,194.887 12.190 C 193.094 13.809,192.952 14.123,194.199 13.711 C 195.364 13.327,197.499 13.641,197.770 14.237 C 198.011 14.765,197.424 18.570,195.236 30.667 C 194.620 34.071,193.720 39.214,193.236 42.095 C 191.260 53.840,190.307 57.034,188.654 57.449 C 187.270 57.796,184.731 54.539,182.456 49.499 C 181.252 46.830,177.464 39.246,176.844 38.265 C 175.924 36.808,176.299 36.447,179.238 35.958 L 180.857 35.689 179.563 34.749 C 178.851 34.232,177.998 33.661,177.667 33.480 C 176.669 32.932,176.583 30.760,177.500 29.276 C 178.227 28.101,177.934 28.175,175.878 29.691 L 173.851 31.184 171.640 30.189 C 169.020 29.011,169.146 28.889,170.089 31.696 L 170.848 33.955 169.206 35.744 C 167.414 37.696,167.330 37.913,168.591 37.341 C 171.204 36.155,172.417 36.895,172.170 39.524 C 172.082 40.467,171.829 43.295,171.608 45.810 C 171.022 52.487,170.285 56.612,169.350 58.443 C 167.620 61.833,162.040 59.030,156.335 51.905 C 155.496 50.857,154.593 49.822,154.328 49.604 C 153.315 48.772,154.787 47.484,157.429 46.890 C 158.073 46.746,158.132 46.695,157.810 46.562 C 153.164 44.648,153.377 44.801,153.168 43.243 C 153.076 42.548,153.076 41.758,153.168 41.434 C 153.621 39.857,153.369 39.935,151.677 41.894 C 150.575 43.170,149.922 43.781,149.725 43.720 C 149.381 43.615,145.495 42.859,145.292 42.858 C 145.217 42.857,145.709 43.771,146.387 44.889 C 147.866 47.328,147.856 46.899,146.489 49.333 C 145.243 51.551,145.213 51.711,146.181 50.972 C 146.984 50.360,149.235 49.749,149.672 50.025 C 149.834 50.127,150.129 50.806,150.327 51.534 C 150.526 52.262,152.441 58.747,154.582 65.946 C 156.724 73.144,158.476 79.083,158.476 79.142 C 158.476 79.201,158.712 79.081,159.000 78.876 C 160.502 77.804,168.714 76.308,177.333 75.536 C 185.063 74.843,187.422 74.762,199.810 74.762 C 208.109 74.762,213.433 74.844,215.714 75.008 C 226.792 75.803,234.153 76.814,239.007 78.208 C 239.980 78.487,240.821 78.671,240.875 78.617 C 240.929 78.563,242.805 72.359,245.044 64.831 C 247.283 57.303,249.200 50.919,249.305 50.645 C 249.583 49.915,249.999 49.845,251.846 50.219 C 252.761 50.404,253.561 50.503,253.624 50.439 C 253.745 50.319,252.749 48.422,252.155 47.641 C 251.533 46.823,252.612 44.525,254.138 43.420 C 255.061 42.751,255.005 42.748,252.190 43.320 C 249.661 43.834,250.011 43.973,248.098 41.693 C 246.498 39.787,246.643 39.691,246.275 42.898 L 246.041 44.939 243.925 45.827 C 242.762 46.316,241.736 46.758,241.646 46.810 C 241.363 46.974,241.973 47.232,242.667 47.241 C 243.385 47.251,245.427 48.163,245.431 48.476 C 245.433 48.581,245.502 48.774,245.586 48.905 C 246.188 49.854,238.724 57.576,235.754 59.076 C 230.278 61.840,228.792 58.833,227.450 42.271 C 227.003 36.765,226.919 36.960,229.762 36.955 C 230.783 36.954,231.619 36.904,231.619 36.844 C 231.619 36.586,229.579 34.426,229.190 34.273 C 228.358 33.946,228.931 31.356,230.140 29.978 C 230.950 29.055,230.845 29.068,228.352 30.191 L 226.132 31.192 224.114 29.693 C 222.666 28.618,222.098 28.288,222.105 28.526 C 222.110 28.708,222.221 29.824,222.351 31.006 C 222.560 32.902,222.553 33.184,222.294 33.403 C 222.132 33.539,221.250 34.185,220.333 34.838 C 218.328 36.268,218.344 36.154,220.143 36.125 C 223.829 36.065,223.830 36.095,220.214 43.289 C 218.570 46.561,216.787 50.183,216.252 51.337 C 215.215 53.577,213.203 56.755,212.520 57.234 C 211.842 57.709,211.288 57.577,210.361 56.723 C 208.569 55.071,208.172 53.661,206.109 41.607 C 205.483 37.947,204.498 32.338,203.921 29.143 C 202.563 21.626,201.524 15.399,201.524 14.782 C 201.524 14.023,202.203 13.713,204.121 13.595 C 205.050 13.539,205.924 13.456,206.063 13.413 C 206.330 13.329,204.657 11.691,203.495 10.898 C 202.563 10.262,202.707 8.333,203.809 6.667 C 204.567 5.523,204.531 5.528,202.112 6.934 L 199.986 8.170 197.887 6.942 C 196.732 6.267,195.759 5.714,195.723 5.714 C 195.688 5.714,195.868 6.679,196.124 7.857 M193.905 80.878 C 187.910 81.034,179.694 81.572,175.238 82.101 C 168.342 82.920,160.033 84.556,160.124 85.076 C 160.187 85.439,161.570 90.006,161.638 90.078 C 161.679 90.121,161.872 90.011,162.068 89.834 C 163.003 88.988,169.828 87.618,176.857 86.865 C 195.545 84.864,227.316 86.182,236.488 89.337 C 237.829 89.799,237.767 89.856,238.460 87.547 C 238.768 86.520,239.169 85.515,239.350 85.314 C 239.754 84.868,239.764 84.877,238.476 84.511 C 229.833 82.057,210.183 80.456,193.905 80.878 M94.202 98.577 C 93.888 98.815,92.380 98.857,84.249 98.857 C 74.794 98.857,74.667 98.862,74.667 99.238 C 74.667 99.632,75.126 99.764,75.333 99.429 C 75.409 99.306,78.759 99.238,84.760 99.238 C 94.452 99.238,94.667 99.221,94.667 98.463 C 94.667 98.237,94.645 98.242,94.202 98.577 M37.524 99.238 C 37.524 99.632,37.983 99.764,38.190 99.429 C 38.264 99.309,40.220 99.238,43.429 99.238 C 46.637 99.238,48.593 99.167,48.667 99.048 C 48.744 98.922,46.859 98.857,43.154 98.857 C 37.651 98.857,37.524 98.866,37.524 99.238 M52.275 99.064 C 52.044 99.438,52.536 99.733,52.955 99.471 C 53.222 99.304,54.621 99.238,57.891 99.238 C 60.727 99.238,62.498 99.166,62.571 99.048 C 62.649 98.922,60.926 98.857,57.546 98.857 C 54.048 98.857,52.363 98.923,52.275 99.064 M107.810 99.316 C 107.810 99.774,108.414 99.837,108.681 99.406 C 108.738 99.313,112.731 99.237,117.583 99.235 C 123.333 99.233,126.282 99.168,126.095 99.048 C 125.921 98.935,122.291 98.862,116.810 98.860 L 107.810 98.857 107.810 99.316 M151.810 99.355 C 151.810 99.841,151.821 99.846,152.279 99.546 C 152.678 99.284,153.432 99.238,157.315 99.238 C 160.155 99.238,161.927 99.166,162.000 99.048 C 162.077 98.922,160.351 98.857,156.964 98.857 L 151.810 98.857 151.810 99.355 M180.190 99.238 C 180.190 99.642,180.828 99.784,181.048 99.429 C 181.123 99.306,184.307 99.237,189.964 99.235 C 195.714 99.233,198.663 99.168,198.476 99.048 C 197.826 98.627,180.190 98.811,180.190 99.238 M241.333 99.238 C 241.333 99.642,241.971 99.784,242.190 99.429 C 242.264 99.309,244.189 99.238,247.333 99.238 C 250.478 99.238,252.403 99.167,252.476 99.048 C 252.554 98.922,250.669 98.857,246.964 98.857 C 241.460 98.857,241.333 98.866,241.333 99.238 M256.085 99.064 C 255.854 99.438,256.345 99.733,256.764 99.471 C 257.032 99.304,258.430 99.238,261.700 99.238 C 264.537 99.238,266.308 99.166,266.381 99.048 C 266.458 98.922,264.736 98.857,261.356 98.857 C 257.858 98.857,256.172 98.923,256.085 99.064 M278.413 98.984 C 278.343 99.054,278.286 99.225,278.286 99.365 C 278.286 99.660,278.969 99.710,279.143 99.429 C 279.217 99.309,281.173 99.238,284.381 99.238 C 287.589 99.238,289.545 99.167,289.619 99.048 C 289.752 98.833,278.627 98.770,278.413 98.984 M299.429 99.316 C 299.429 99.774,300.033 99.837,300.300 99.406 C 300.357 99.313,303.222 99.238,306.667 99.238 C 310.637 99.238,312.973 99.168,313.048 99.048 C 313.125 98.922,310.827 98.857,306.297 98.857 L 299.429 98.857 299.429 99.316 M316.381 99.260 C 316.381 99.597,316.452 99.638,316.810 99.510 C 317.045 99.425,318.524 99.325,320.095 99.287 C 324.264 99.187,324.074 98.857,319.848 98.857 C 316.444 98.857,316.381 98.865,316.381 99.260 M345.025 99.048 C 339.108 99.914,334.844 104.904,333.445 112.595 C 332.887 115.665,332.929 116.631,333.502 113.905 C 335.590 103.970,340.197 99.329,348.083 99.216 C 349.412 99.197,349.516 99.173,348.857 99.037 C 347.943 98.848,346.359 98.852,345.025 99.048 M355.714 99.619 C 355.355 99.994,354.979 100.190,354.620 100.190 C 354.304 100.190,354.122 100.271,354.190 100.381 C 354.547 100.957,355.873 100.447,356.161 99.623 C 356.408 98.913,356.391 98.913,355.714 99.619 M151.770 106.571 C 144.577 140.168,144.858 139.073,143.055 140.616 C 142.493 141.097,142.355 141.322,142.493 141.532 C 142.813 142.017,144.425 140.088,144.991 138.542 C 145.884 136.100,152.817 104.262,152.720 103.048 C 152.686 102.620,152.346 103.881,151.770 106.571 M53.843 104.190 C 53.381 105.580,52.369 107.410,49.859 111.398 C 47.942 114.442,47.532 115.292,48.281 114.671 C 48.586 114.417,52.109 108.833,53.090 107.048 C 53.898 105.577,54.327 104.340,54.253 103.694 C 54.198 103.205,54.151 103.262,53.843 104.190 M257.528 104.429 C 256.999 105.903,256.497 106.805,253.760 111.207 C 252.565 113.127,251.636 114.747,251.694 114.805 C 252.219 115.330,257.855 105.811,258.052 104.065 C 258.180 102.925,258.031 103.029,257.528 104.429 M90.933 107.765 C 90.818 107.842,90.672 108.541,90.608 109.320 C 90.382 112.092,89.430 113.067,86.723 113.298 L 85.238 113.425 86.571 113.530 C 89.507 113.763,90.843 112.591,90.853 109.774 C 90.855 109.126,90.941 108.376,91.043 108.108 C 91.246 107.574,91.241 107.559,90.933 107.765 M123.895 108.524 C 123.267 111.448,121.833 113.453,119.143 115.165 C 117.666 116.104,118.217 116.317,119.746 115.397 C 122.005 114.038,123.904 111.296,124.134 109.059 C 124.248 107.959,124.091 107.609,123.895 108.524 M196.140 108.940 C 195.864 110.995,194.116 113.419,191.797 114.961 C 190.299 115.957,190.193 116.472,191.650 115.679 C 194.383 114.192,197.500 109.424,196.436 108.360 C 196.307 108.231,196.210 108.421,196.140 108.940 M349.714 117.333 C 349.714 117.788,349.874 117.810,350.414 117.432 C 350.742 117.202,351.794 117.139,356.028 117.095 L 361.238 117.041 355.476 116.997 C 349.826 116.953,349.714 116.960,349.714 117.333 M97.747 127.356 C 95.797 134.106,92.244 138.286,88.458 138.286 C 87.805 138.286,87.451 138.358,87.524 138.476 C 87.736 138.820,89.836 138.687,90.993 138.256 C 93.064 137.485,95.523 134.521,96.816 131.238 C 97.448 129.634,98.321 126.515,98.247 126.128 C 98.215 125.963,97.990 126.515,97.747 127.356 M125.550 131.103 C 124.732 135.861,123.060 138.142,120.257 138.328 C 119.164 138.401,119.426 138.667,120.590 138.667 C 123.330 138.667,126.249 134.480,125.660 131.394 C 125.614 131.151,125.564 131.020,125.550 131.103 M197.856 131.429 C 197.796 131.690,197.651 132.381,197.535 132.963 C 196.922 136.019,194.955 138.162,192.611 138.327 C 191.566 138.401,191.809 138.668,192.916 138.662 C 195.365 138.651,197.392 136.353,197.911 133.002 C 198.124 131.621,198.084 130.440,197.856 131.429 M351.946 135.238 C 351.641 137.005,350.342 138.469,349.067 138.482 C 348.556 138.487,348.524 138.515,348.825 138.691 C 350.241 139.514,352.336 137.283,352.157 135.143 L 352.093 134.381 351.946 135.238 M76.609 137.150 C 76.523 139.119,75.916 140.659,75.103 140.968 C 74.643 141.143,74.495 141.714,74.910 141.714 C 75.971 141.714,76.815 139.817,76.713 137.663 C 76.672 136.816,76.633 136.619,76.609 137.150 M182.129 137.732 C 182.049 139.372,181.270 140.952,180.542 140.952 C 180.292 140.952,180.190 141.093,180.190 141.439 L 180.190 141.926 180.782 141.582 C 181.979 140.885,182.406 139.807,182.238 137.905 C 182.170 137.144,182.158 137.125,182.129 137.732 M280.389 137.571 C 280.358 137.755,280.318 137.969,280.298 138.048 C 280.279 138.126,280.199 138.541,280.120 138.968 C 279.926 140.022,279.356 140.909,278.823 140.985 C 278.280 141.063,278.094 141.714,278.615 141.714 C 279.610 141.714,280.688 139.608,280.522 137.988 C 280.480 137.576,280.420 137.388,280.389 137.571 M109.661 138.423 C 109.505 139.743,109.001 140.708,108.349 140.935 C 107.982 141.063,107.810 141.254,107.810 141.533 L 107.810 141.942 108.429 141.554 C 109.552 140.851,110.406 138.655,109.912 137.742 C 109.829 137.589,109.727 137.866,109.661 138.423 M160.034 137.924 C 159.947 139.179,159.125 140.670,158.359 140.961 C 158.081 141.066,157.905 141.287,157.905 141.530 C 157.905 141.963,157.995 141.935,158.971 141.203 C 159.796 140.585,160.231 139.531,160.142 138.371 C 160.101 137.853,160.053 137.651,160.034 137.924 M243.237 138.048 C 243.234 139.336,242.280 141.143,241.602 141.143 C 241.454 141.143,241.333 141.314,241.333 141.524 C 241.333 142.193,242.563 141.476,243.084 140.503 C 243.347 140.012,243.601 137.524,243.388 137.524 C 243.306 137.524,243.238 137.760,243.237 138.048 M301.280 138.423 C 301.124 139.743,300.620 140.708,299.968 140.935 C 299.602 141.063,299.429 141.254,299.429 141.531 C 299.429 142.044,300.380 141.572,300.979 140.762 C 301.416 140.172,301.800 138.214,301.562 137.790 C 301.436 137.565,301.362 137.731,301.280 138.423 M39.308 138.783 C 39.045 140.198,38.590 140.939,37.899 141.077 C 37.432 141.171,37.249 141.905,37.693 141.905 C 38.613 141.905,39.693 139.950,39.586 138.476 L 39.524 137.619 39.308 138.783 M318.000 139.143 C 317.712 140.007,317.470 140.378,317.007 140.666 C 316.493 140.987,316.133 141.714,316.489 141.714 C 317.288 141.714,318.568 139.642,318.444 138.551 C 318.389 138.073,318.330 138.152,318.000 139.143 M54.396 139.619 C 54.185 140.270,53.581 140.897,53.030 141.035 C 52.599 141.143,52.340 141.905,52.733 141.905 C 53.116 141.905,54.478 140.726,54.584 140.303 C 54.761 139.600,54.595 139.001,54.396 139.619 M258.222 139.365 C 258.152 139.435,258.095 139.634,258.095 139.808 C 258.095 140.192,257.396 140.861,256.810 141.039 C 256.269 141.203,256.205 141.915,256.744 141.774 C 257.476 141.583,258.476 140.461,258.476 139.831 C 258.476 139.218,258.438 139.149,258.222 139.365 " stroke="none" fill="#f7d016" fill-rule="evenodd"></path><path id="path3" d="M203.745 6.795 C 203.216 7.496,202.697 10.206,203.031 10.519 C 203.246 10.721,203.271 10.682,203.176 10.292 C 202.908 9.188,203.813 6.465,204.311 6.878 C 204.649 7.159,204.639 7.524,204.244 9.447 C 203.967 10.793,203.956 11.077,204.176 11.282 C 204.390 11.480,204.418 11.468,204.329 11.215 C 204.270 11.045,204.390 10.149,204.596 9.224 C 205.141 6.775,204.704 5.524,203.745 6.795 M194.374 13.745 C 193.683 13.924,193.477 14.756,194.076 14.946 C 194.809 15.179,197.613 15.416,197.770 15.258 C 197.861 15.168,197.223 15.036,196.336 14.962 C 194.602 14.818,194.420 14.753,194.220 14.211 C 194.061 13.783,196.909 13.855,197.436 14.292 C 197.621 14.446,197.714 14.454,197.714 14.316 C 197.714 13.815,195.539 13.443,194.374 13.745 M203.333 13.707 C 202.166 13.874,201.777 14.037,201.631 14.420 C 201.516 14.719,202.422 20.237,204.283 30.571 C 204.849 33.714,205.827 39.286,206.457 42.952 C 208.029 52.103,209.090 56.043,209.928 55.841 C 210.072 55.806,210.129 55.839,210.054 55.914 C 209.863 56.105,210.222 56.715,210.665 56.951 C 211.008 57.135,211.002 57.083,210.584 56.242 C 209.749 54.561,209.071 51.532,207.716 43.429 C 207.340 41.176,206.439 36.033,205.714 32.000 C 203.853 21.637,203.021 16.573,203.086 16.011 C 203.147 15.490,203.417 15.407,205.906 15.143 C 207.384 14.986,207.604 14.821,207.232 14.148 C 206.909 13.564,205.465 13.401,203.333 13.707 M206.556 13.830 C 207.647 14.249,206.809 14.785,204.789 14.962 C 202.183 15.189,202.184 13.998,204.779 28.476 C 205.399 31.933,206.507 38.276,207.242 42.571 C 208.374 49.185,209.270 53.643,209.808 55.333 C 209.881 55.562,209.813 55.514,209.637 55.213 C 208.869 53.895,207.983 49.896,206.479 40.952 C 205.942 37.757,205.044 32.614,204.483 29.524 C 202.439 18.259,201.837 14.468,202.057 14.248 C 202.391 13.914,205.921 13.586,206.556 13.830 M177.428 29.525 C 176.966 30.418,176.829 32.803,177.220 33.128 C 177.507 33.366,177.518 33.343,177.344 32.887 C 177.152 32.379,177.347 29.964,177.616 29.528 C 178.055 28.818,178.316 29.813,178.212 31.798 C 178.135 33.267,178.156 33.617,178.288 33.097 C 178.938 30.540,178.292 27.855,177.428 29.525 M230.172 29.934 C 230.095 30.059,230.119 30.103,230.228 30.036 C 230.333 29.971,230.531 30.128,230.669 30.386 C 231.025 31.051,229.978 34.566,229.524 34.231 C 229.367 34.115,229.707 34.509,230.279 35.106 C 230.852 35.702,231.361 36.190,231.412 36.190 C 231.462 36.190,231.216 35.894,230.865 35.532 C 230.097 34.740,230.083 34.344,230.752 32.395 C 231.334 30.701,231.359 30.173,230.870 29.911 C 230.404 29.662,230.339 29.665,230.172 29.934 M229.764 30.524 C 229.168 31.283,228.608 33.787,228.982 34.019 C 229.137 34.114,229.166 34.018,229.081 33.696 C 228.959 33.242,229.576 31.001,229.953 30.524 C 230.057 30.393,230.099 30.286,230.047 30.286 C 229.994 30.286,229.867 30.393,229.764 30.524 M178.443 36.171 C 176.310 36.651,175.964 37.054,176.857 38.018 C 177.355 38.555,180.708 45.187,182.626 49.429 C 183.241 50.790,183.842 51.884,183.961 51.859 C 184.089 51.833,184.128 51.942,184.056 52.129 C 183.969 52.357,184.005 52.401,184.188 52.288 C 184.351 52.187,184.394 52.205,184.310 52.341 C 184.124 52.642,185.650 55.129,186.720 56.268 L 187.631 57.238 186.850 56.095 C 186.114 55.019,177.905 38.672,177.905 38.283 C 177.905 38.184,178.098 38.059,178.333 38.007 C 178.569 37.954,179.356 37.779,180.082 37.617 C 181.939 37.203,182.195 36.955,181.516 36.226 C 181.050 35.726,180.471 35.715,178.443 36.171 M181.141 36.283 C 181.544 36.769,181.218 37.078,180.064 37.306 C 178.090 37.697,177.524 37.904,177.524 38.236 C 177.524 38.439,177.355 38.321,177.046 37.903 C 176.416 37.049,176.677 36.776,178.530 36.352 C 180.294 35.948,180.850 35.933,181.141 36.283 M219.714 36.162 C 218.356 36.604,220.505 37.905,222.593 37.905 C 223.234 37.905,222.659 37.659,221.293 37.349 C 220.242 37.110,219.891 36.949,219.839 36.681 C 219.759 36.264,221.369 36.376,222.333 36.854 C 222.779 37.075,222.857 37.074,222.857 36.846 C 222.857 36.699,222.621 36.526,222.333 36.461 C 222.045 36.397,221.510 36.267,221.143 36.173 C 220.403 35.983,220.266 35.982,219.714 36.162 M231.571 36.562 C 232.017 37.078,231.811 37.143,229.738 37.143 C 226.960 37.143,227.124 36.802,227.509 41.760 C 228.334 52.409,229.144 56.718,230.687 58.670 C 231.654 59.893,231.718 59.831,231.138 58.234 C 230.201 55.651,229.607 51.666,228.962 43.619 C 228.538 38.326,228.415 38.668,230.738 38.664 C 233.237 38.660,233.516 38.291,232.046 36.941 C 231.654 36.581,231.440 36.411,231.571 36.562 M170.164 37.285 C 170.957 37.325,171.659 37.475,171.951 37.667 C 172.428 37.979,172.430 37.978,172.171 37.563 C 171.932 37.181,171.770 37.146,170.383 37.180 L 168.857 37.217 170.164 37.285 M168.476 37.479 C 168.175 37.701,168.137 38.325,168.414 38.501 C 168.716 38.692,172.312 38.725,172.122 38.535 C 172.049 38.462,171.314 38.398,170.487 38.392 C 168.862 38.380,168.757 38.341,168.711 37.736 C 168.694 37.514,168.678 37.335,168.674 37.336 C 168.670 37.338,168.581 37.402,168.476 37.479 M232.080 37.449 C 233.286 37.912,232.038 38.518,230.051 38.435 C 228.215 38.357,228.262 38.239,228.540 42.238 C 229.006 48.936,229.622 53.868,230.353 56.769 C 230.824 58.637,230.828 58.848,230.372 57.762 C 229.400 55.446,228.568 50.477,228.004 43.619 C 227.793 41.052,227.577 38.704,227.524 38.401 C 227.360 37.467,227.648 37.333,229.817 37.333 C 230.896 37.333,231.914 37.385,232.080 37.449 M153.231 41.365 C 153.042 42.226,153.328 44.142,153.717 44.621 C 154.055 45.037,154.057 45.022,153.793 44.006 C 153.426 42.588,153.425 41.204,153.790 41.508 C 154.016 41.695,154.443 44.505,154.321 45.000 C 154.302 45.079,154.383 45.143,154.501 45.143 C 154.740 45.143,154.593 42.912,154.273 41.688 C 154.031 40.762,153.406 40.568,153.231 41.365 M248.342 41.857 C 248.759 42.355,249.300 42.933,249.544 43.143 C 249.787 43.352,249.487 42.945,248.875 42.238 C 248.263 41.531,247.723 40.952,247.673 40.952 C 247.624 40.952,247.925 41.360,248.342 41.857 M254.171 43.476 C 254.096 43.607,254.101 43.654,254.183 43.580 C 254.358 43.422,254.857 43.876,254.857 44.194 C 254.857 44.316,254.396 45.223,253.832 46.210 L 252.808 48.003 252.499 47.532 C 252.329 47.273,252.191 46.908,252.191 46.721 C 252.192 46.406,252.331 46.136,253.369 44.429 C 253.576 44.088,253.702 43.810,253.648 43.810 C 253.513 43.810,252.253 45.906,252.020 46.518 C 251.857 46.948,251.913 47.125,252.410 47.748 C 253.262 48.816,253.974 50.293,253.747 50.520 C 253.623 50.644,253.009 50.582,251.951 50.339 C 250.187 49.934,249.617 50.015,249.353 50.710 C 249.262 50.949,247.367 57.273,245.141 64.763 C 242.915 72.253,241.020 78.475,240.928 78.591 C 240.810 78.740,240.309 78.668,239.191 78.344 C 223.868 73.892,183.967 73.404,164.095 77.425 C 159.621 78.331,158.373 78.918,158.823 79.906 C 159.095 80.503,159.387 80.502,161.473 79.897 C 166.149 78.540,173.655 77.513,184.667 76.722 C 189.362 76.385,211.781 76.385,216.476 76.722 C 227.488 77.513,234.994 78.540,239.670 79.897 C 241.720 80.491,242.052 80.498,242.291 79.952 C 242.394 79.717,244.326 73.310,246.584 65.714 C 248.842 58.119,250.765 51.829,250.857 51.736 C 250.954 51.637,251.791 51.744,252.856 51.990 C 255.629 52.631,255.740 52.467,254.286 49.887 C 253.113 47.807,253.110 47.953,254.381 45.854 C 255.578 43.879,255.605 43.761,254.943 43.459 C 254.342 43.185,254.339 43.185,254.171 43.476 M157.848 46.990 C 158.207 47.060,158.642 47.720,158.446 47.897 C 158.410 47.929,157.738 48.275,156.952 48.665 C 156.167 49.056,155.389 49.495,155.223 49.640 C 154.963 49.869,154.864 49.841,154.481 49.434 C 153.900 48.816,154.130 48.533,155.899 47.684 C 156.630 47.334,157.120 47.048,156.990 47.048 C 156.556 47.048,154.080 48.390,153.966 48.687 C 153.897 48.866,154.109 49.250,154.515 49.680 C 154.878 50.066,155.695 51.024,156.330 51.810 C 156.965 52.595,158.072 53.848,158.790 54.594 C 159.827 55.671,159.886 55.715,159.081 54.806 C 157.550 53.079,155.429 50.282,155.429 49.990 C 155.429 49.849,156.136 49.400,157.000 48.994 C 158.932 48.087,159.182 47.832,158.692 47.267 C 158.494 47.039,158.135 46.869,157.882 46.883 C 157.448 46.908,157.446 46.912,157.848 46.990 M242.224 47.506 C 242.065 47.919,243.192 48.700,244.864 49.336 C 245.869 49.718,245.264 49.183,244.000 48.571 C 243.267 48.217,242.667 47.851,242.667 47.760 C 242.667 47.529,243.346 47.755,244.507 48.374 C 245.141 48.712,245.454 48.803,245.388 48.630 C 245.117 47.924,242.430 46.969,242.224 47.506 M147.883 50.265 C 146.488 50.665,145.770 51.181,145.870 51.714 C 146.003 52.422,146.228 52.448,148.278 51.993 C 149.384 51.747,150.224 51.483,150.145 51.405 C 150.065 51.328,149.235 51.441,148.301 51.656 C 146.671 52.033,146.592 52.035,146.352 51.707 C 145.744 50.875,149.092 49.740,149.867 50.514 C 149.992 50.640,150.095 50.689,150.095 50.623 C 150.095 49.944,149.398 49.832,147.883 50.265 M252.036 50.665 C 252.906 50.874,253.845 51.046,254.121 51.046 C 254.466 51.047,254.654 51.170,254.725 51.440 C 254.878 52.025,254.534 52.054,252.667 51.619 C 251.045 51.241,250.963 51.239,250.654 51.565 C 250.473 51.756,248.572 57.857,246.305 65.524 C 244.090 73.014,242.196 79.336,242.095 79.571 C 241.864 80.115,241.528 80.110,239.534 79.532 C 234.864 78.179,226.837 77.116,215.429 76.341 C 210.694 76.019,190.449 76.019,185.714 76.341 C 174.827 77.081,167.444 78.021,162.678 79.274 C 159.721 80.052,159.365 80.097,159.061 79.731 C 157.531 77.887,173.508 75.618,192.245 75.018 C 210.171 74.443,232.314 76.193,239.325 78.739 C 240.123 79.028,240.638 79.121,240.836 79.010 C 241.187 78.814,241.182 78.828,245.895 62.980 C 247.884 56.290,249.610 50.697,249.731 50.551 C 250.017 50.207,250.153 50.214,252.036 50.665 M239.469 85.337 C 239.142 85.641,238.599 87.107,238.184 88.802 C 237.964 89.700,237.688 89.779,236.252 89.354 C 221.100 84.871,177.699 84.818,163.574 89.265 C 161.880 89.799,161.496 90.210,161.991 90.965 C 162.358 91.525,162.498 91.532,163.881 91.056 C 177.034 86.531,222.189 86.487,237.008 90.985 C 239.087 91.616,239.034 91.658,239.912 88.746 C 240.666 86.243,240.711 85.728,240.208 85.297 C 239.871 85.009,239.818 85.011,239.469 85.337 M240.283 86.343 C 240.240 86.468,239.941 87.471,239.619 88.571 C 238.850 91.202,238.835 91.214,237.187 90.694 C 223.156 86.265,179.172 86.144,164.667 90.494 C 162.632 91.104,162.590 91.108,162.231 90.712 C 161.768 90.200,162.182 89.866,163.905 89.362 C 178.617 85.057,222.039 85.220,236.008 89.633 C 237.950 90.247,237.997 90.212,238.752 87.619 C 239.398 85.400,239.572 85.139,240.030 85.704 C 240.213 85.929,240.327 86.217,240.283 86.343 M95.238 98.937 C 95.238 99.085,95.339 99.240,95.463 99.281 C 95.670 99.350,97.302 111.457,97.325 113.084 C 97.336 113.854,97.091 114.005,96.482 113.605 C 95.922 113.239,95.861 113.357,96.328 113.903 C 96.717 114.357,97.195 114.396,97.525 113.999 C 97.801 113.666,96.143 99.355,95.777 98.913 C 95.507 98.588,95.238 98.600,95.238 98.937 M63.250 99.053 C 63.244 99.213,63.372 99.535,63.536 99.769 C 64.107 100.585,63.833 101.175,62.571 101.845 C 60.474 102.958,58.666 104.889,55.935 108.929 C 54.634 110.855,54.642 110.625,55.799 112.931 C 58.556 118.425,60.479 124.545,62.750 135.048 C 63.741 139.633,63.971 140.348,64.578 140.748 L 65.032 141.048 64.611 140.476 C 64.156 139.859,63.758 138.349,62.377 132.000 C 60.628 123.955,58.570 117.694,55.977 112.528 C 55.046 110.673,55.027 110.844,56.382 108.839 C 59.077 104.853,60.859 102.999,62.938 102.015 C 63.761 101.625,63.994 101.413,64.094 100.958 C 64.233 100.325,64.073 99.619,63.791 99.619 C 63.689 99.619,63.529 99.426,63.435 99.190 C 63.332 98.936,63.257 98.880,63.250 99.053 M267.063 99.053 C 267.054 99.213,267.182 99.535,267.346 99.769 C 267.921 100.591,267.643 101.178,266.381 101.810 C 264.816 102.592,262.371 105.082,260.490 107.808 C 258.383 110.861,258.431 110.585,259.607 112.928 C 262.331 118.357,264.176 124.161,266.364 134.190 C 267.559 139.667,267.766 140.338,268.387 140.748 L 268.841 141.048 268.420 140.476 C 267.966 139.859,267.568 138.349,266.187 132.000 C 264.437 123.955,262.379 117.694,259.786 112.528 C 258.842 110.646,258.825 110.772,260.323 108.606 C 262.999 104.738,264.791 102.874,266.612 102.061 C 267.929 101.473,268.395 100.394,267.645 99.674 C 267.450 99.487,267.242 99.205,267.184 99.048 C 267.091 98.797,267.076 98.798,267.063 99.053 M290.301 99.059 C 290.292 99.222,290.412 99.522,290.565 99.725 C 291.047 100.362,290.920 100.998,290.194 101.576 C 288.819 102.674,288.856 102.114,288.863 121.619 C 288.870 139.580,288.914 140.659,289.648 140.900 C 289.790 140.946,289.757 140.686,289.552 140.152 C 289.269 139.413,289.238 137.638,289.238 121.810 C 289.238 102.244,289.199 102.878,290.488 101.689 C 291.328 100.914,291.462 100.230,290.883 99.674 C 290.688 99.487,290.481 99.205,290.422 99.048 C 290.330 98.801,290.314 98.802,290.301 99.059 M356.597 99.148 C 356.583 99.360,356.712 99.736,356.885 99.981 C 357.189 100.415,358.073 110.117,358.090 113.190 C 358.095 114.317,357.886 114.561,357.353 114.048 C 357.153 113.855,357.119 113.882,357.174 114.190 C 357.283 114.803,358.240 114.822,358.392 114.214 C 358.739 112.831,357.411 99.240,356.956 99.521 C 356.864 99.578,356.752 99.431,356.706 99.193 C 356.633 98.813,356.620 98.808,356.597 99.148 M162.857 99.197 C 162.857 99.307,163.004 99.653,163.183 99.965 C 163.526 100.562,163.508 100.642,162.745 101.905 C 162.264 102.701,162.362 103.282,166.939 126.762 C 169.341 139.082,169.500 139.751,170.219 140.521 C 170.704 141.041,170.706 141.041,170.421 140.559 C 169.722 139.376,168.556 133.814,164.212 110.952 C 162.626 102.605,162.623 102.578,163.251 101.696 C 163.768 100.971,163.773 100.161,163.267 99.517 C 163.041 99.230,162.857 99.087,162.857 99.197 M313.911 99.260 C 313.914 99.405,314.043 99.690,314.197 99.894 C 314.605 100.433,314.541 100.983,313.984 101.725 C 313.112 102.885,313.335 103.790,315.819 109.166 C 316.999 111.720,317.965 113.917,317.966 114.048 C 317.967 114.179,318.045 114.286,318.138 114.286 C 318.232 114.286,318.255 114.371,318.190 114.476 C 318.126 114.581,318.157 114.667,318.261 114.667 C 318.364 114.667,318.484 114.774,318.528 114.905 C 318.572 115.036,318.569 114.895,318.521 114.592 C 318.473 114.289,317.664 112.403,316.724 110.402 C 313.722 104.014,313.422 102.951,314.305 101.829 C 314.840 101.149,314.847 100.194,314.323 99.527 C 314.093 99.235,313.907 99.115,313.911 99.260 M49.674 99.836 C 50.164 100.634,50.103 100.907,49.237 101.773 C 48.892 102.117,48.505 102.738,48.376 103.152 C 48.104 104.026,47.866 114.284,48.124 114.032 C 48.213 113.945,48.338 111.588,48.401 108.794 C 48.530 103.159,48.641 102.543,49.666 101.761 C 50.480 101.140,50.507 99.964,49.719 99.450 L 49.248 99.143 49.674 99.836 M253.481 99.832 C 254.016 100.702,254.037 100.586,253.151 101.609 C 252.023 102.913,251.957 103.306,251.900 109.048 L 251.848 114.190 252.021 109.714 C 252.257 103.633,252.405 102.769,253.369 101.875 C 254.284 101.026,254.353 99.988,253.529 99.450 L 253.058 99.143 253.481 99.832 M324.006 99.571 C 324.009 99.650,324.138 99.881,324.292 100.084 C 324.687 100.607,324.660 100.690,323.822 101.511 C 322.521 102.786,322.571 101.986,322.571 121.524 C 322.571 139.659,322.606 140.552,323.314 140.823 C 323.518 140.902,323.507 140.791,323.264 140.319 C 322.983 139.774,322.947 137.975,322.899 122.201 C 322.840 102.686,322.819 103.065,324.021 101.838 C 324.796 101.047,325.011 100.134,324.533 99.657 C 324.277 99.400,323.997 99.355,324.006 99.571 M130.158 100.792 C 133.518 105.057,132.134 111.569,127.002 115.635 C 126.506 116.029,126.197 116.383,126.317 116.423 C 126.789 116.580,129.703 113.656,130.677 112.050 C 132.891 108.398,132.749 103.297,130.365 100.814 L 129.309 99.714 130.158 100.792 M74.491 100.151 C 74.471 100.483,75.213 101.463,75.752 101.817 C 76.397 102.239,76.288 102.002,75.452 101.167 C 75.046 100.761,74.667 100.311,74.610 100.167 C 74.532 99.970,74.503 99.966,74.491 100.151 M202.591 100.857 C 205.816 105.214,204.561 111.290,199.578 115.446 C 198.973 115.950,198.592 116.391,198.721 116.438 C 199.157 116.597,202.713 112.774,203.380 111.429 C 205.206 107.751,204.964 103.146,202.827 100.895 L 201.886 99.905 202.591 100.857 M316.196 100.307 C 316.206 100.641,318.095 102.532,318.095 102.209 C 318.095 102.135,317.667 101.638,317.143 101.106 C 316.619 100.574,316.193 100.215,316.196 100.307 M37.564 100.866 C 37.699 101.028,37.925 101.264,38.066 101.390 C 38.207 101.516,38.528 101.808,38.780 102.039 C 39.526 102.723,39.302 102.161,38.498 101.334 C 37.785 100.599,37.024 100.218,37.564 100.866 M52.463 100.871 C 52.627 101.035,52.762 101.234,52.762 101.311 C 52.762 101.389,53.019 101.642,53.333 101.875 C 54.138 102.470,54.045 102.061,53.190 101.252 C 52.503 100.600,51.850 100.259,52.463 100.871 M108.224 101.045 C 108.420 101.475,109.333 102.256,109.333 101.994 C 109.333 101.814,108.297 100.571,108.147 100.571 C 108.071 100.571,108.105 100.785,108.224 101.045 M180.333 100.698 C 180.464 100.750,180.571 100.909,180.571 101.051 C 180.571 101.192,180.829 101.490,181.143 101.714 C 181.457 101.938,181.713 102.051,181.712 101.965 C 181.709 101.747,180.473 100.568,180.265 100.586 C 180.172 100.595,180.202 100.645,180.333 100.698 M241.476 100.698 C 241.607 100.750,241.714 100.888,241.714 101.002 C 241.714 101.117,242.014 101.486,242.381 101.822 C 243.176 102.550,243.254 102.375,242.527 101.491 C 241.929 100.763,241.696 100.572,241.429 100.589 C 241.324 100.596,241.345 100.645,241.476 100.698 M256.407 101.028 C 256.627 101.512,257.714 102.420,257.714 102.120 C 257.714 101.953,256.426 100.571,256.271 100.571 C 256.231 100.571,256.292 100.777,256.407 101.028 M278.684 101.010 C 278.884 101.449,279.583 102.004,279.738 101.849 C 279.830 101.757,278.768 100.571,278.594 100.571 C 278.534 100.571,278.574 100.769,278.684 101.010 M299.800 100.935 C 300.035 101.374,301.143 102.505,301.143 102.306 C 301.143 102.086,299.937 100.571,299.762 100.571 C 299.676 100.571,299.693 100.735,299.800 100.935 M152.013 100.857 C 152.013 100.962,152.136 101.262,152.286 101.524 C 152.435 101.786,152.558 101.914,152.558 101.810 C 152.558 101.705,152.435 101.405,152.286 101.143 C 152.136 100.881,152.013 100.752,152.013 100.857 M87.111 104.198 C 86.365 104.428,85.604 105.306,85.337 106.244 C 85.051 107.253,84.839 113.143,85.089 113.143 C 85.213 113.143,85.315 111.932,85.367 109.856 C 85.484 105.128,86.011 104.284,88.762 104.424 C 90.707 104.523,92.389 105.541,93.883 107.524 L 94.313 108.095 93.873 107.266 C 92.684 105.030,89.337 103.512,87.111 104.198 M119.714 104.291 C 119.295 104.442,118.933 104.567,118.910 104.569 C 118.420 104.601,118.288 105.969,118.324 110.610 L 118.363 115.524 118.467 110.528 L 118.571 105.532 119.066 105.037 C 119.952 104.152,121.969 104.170,123.042 105.072 C 123.650 105.584,123.863 105.423,123.279 104.894 C 122.350 104.054,121.005 103.826,119.714 104.291 M191.901 104.356 C 190.646 104.926,190.592 105.171,190.480 110.794 C 190.403 114.665,190.432 115.735,190.610 115.587 C 190.775 115.450,190.855 114.015,190.896 110.464 L 190.952 105.532 191.481 105.004 C 192.263 104.222,194.273 104.226,195.301 105.010 C 196.000 105.543,196.001 105.543,195.790 105.080 C 195.369 104.157,193.220 103.757,191.901 104.356 M347.439 104.901 C 340.780 107.252,339.653 131.190,345.925 137.048 L 346.741 137.810 346.099 137.051 C 341.592 131.723,340.704 114.854,344.576 108.088 C 346.982 103.882,351.045 103.845,354.363 108.000 L 354.895 108.667 354.448 107.832 C 353.113 105.341,349.944 104.016,347.439 104.901 M91.444 108.129 C 91.435 108.253,91.572 108.497,91.747 108.672 C 92.149 109.074,93.707 124.654,93.379 124.983 C 93.246 125.116,93.015 125.068,92.654 124.831 L 92.125 124.485 92.465 125.004 C 92.859 125.605,93.426 125.681,93.700 125.170 C 93.880 124.833,92.568 109.650,92.279 108.741 C 92.216 108.543,92.049 108.381,91.908 108.381 C 91.766 108.381,91.608 108.274,91.555 108.143 C 91.487 107.975,91.454 107.971,91.444 108.129 M305.333 123.326 C 305.333 138.154,305.432 140.613,306.034 140.844 C 306.247 140.925,306.279 140.851,306.174 140.523 C 306.098 140.288,305.952 139.795,305.848 139.429 C 305.500 138.193,305.437 109.926,305.783 109.793 C 306.091 109.675,305.835 108.762,305.493 108.762 C 305.405 108.762,305.333 115.316,305.333 123.326 M154.289 113.356 C 153.948 115.177,153.514 117.438,153.324 118.381 C 153.110 119.442,153.046 120.164,153.156 120.276 C 153.260 120.382,153.333 120.384,153.333 120.282 C 153.333 119.852,154.897 111.843,155.083 111.317 C 155.225 110.918,155.231 110.619,155.101 110.387 C 154.954 110.125,154.764 110.821,154.289 113.356 M362.152 117.586 C 362.698 118.421,362.573 118.982,361.720 119.520 C 360.069 120.563,359.930 121.543,360.083 131.048 C 360.231 140.254,360.231 140.252,361.018 140.795 L 361.619 141.211 361.172 140.717 C 360.479 139.950,360.355 138.077,360.419 129.412 C 360.484 120.612,360.500 120.508,361.992 119.705 C 363.025 119.149,363.162 117.917,362.254 117.355 C 361.829 117.092,361.828 117.093,362.152 117.586 M85.333 118.458 C 84.636 118.932,84.892 135.737,85.618 137.140 C 86.059 137.994,86.491 138.222,86.076 137.383 C 85.410 136.037,85.328 134.769,85.379 126.660 L 85.429 118.762 86.667 118.701 C 88.205 118.626,89.145 118.894,90.011 119.655 C 90.658 120.222,90.675 120.226,90.465 119.765 C 89.982 118.707,86.334 117.777,85.333 118.458 M129.995 119.017 C 136.817 127.055,134.855 141.201,126.650 143.135 C 124.888 143.550,108.804 143.570,108.646 143.158 C 108.476 142.715,108.027 142.635,108.141 143.068 C 108.334 143.809,108.702 143.836,117.582 143.767 C 127.387 143.690,127.689 143.648,129.798 142.043 C 135.656 137.587,136.065 125.319,130.549 119.512 C 129.858 118.785,129.609 118.562,129.995 119.017 M202.301 118.939 C 205.284 122.489,206.347 125.544,206.347 130.571 C 206.347 137.697,203.631 142.191,198.705 143.218 C 196.830 143.609,181.145 143.501,180.837 143.095 C 180.612 142.799,180.583 142.797,180.577 143.072 C 180.563 143.817,180.811 143.836,189.844 143.772 C 199.427 143.703,199.693 143.672,201.682 142.393 C 207.924 138.378,208.589 125.394,202.857 119.442 C 202.281 118.844,202.031 118.618,202.301 118.939 M349.823 118.622 C 349.936 118.699,350.078 118.899,350.140 119.066 C 350.237 119.331,351.619 120.301,351.619 120.104 C 351.619 119.824,351.349 119.429,351.157 119.429 C 351.030 119.429,350.740 119.214,350.512 118.952 C 350.284 118.690,349.990 118.478,349.858 118.479 C 349.698 118.481,349.686 118.528,349.823 118.622 M120.000 120.438 L 118.381 121.440 118.328 129.339 C 118.272 137.666,118.289 137.983,118.787 138.174 C 119.062 138.279,119.068 138.254,118.836 137.975 C 118.569 137.654,118.310 122.973,118.554 122.001 C 118.660 121.581,121.397 119.810,121.940 119.810 C 122.236 119.810,122.725 120.296,123.482 121.341 L 123.821 121.810 123.594 121.333 C 122.555 119.150,122.216 119.066,120.000 120.438 M192.510 120.316 C 190.272 121.641,190.436 120.855,190.509 129.888 C 190.568 137.260,190.592 137.720,190.932 138.041 C 191.279 138.369,191.286 138.367,191.122 138.000 C 190.940 137.590,190.772 122.652,190.943 121.971 C 191.050 121.543,193.769 119.810,194.334 119.810 C 194.499 119.810,194.914 120.174,195.256 120.619 C 196.427 122.145,196.472 122.021,195.359 120.334 C 194.611 119.201,194.397 119.199,192.510 120.316 M48.911 120.142 C 47.965 121.220,47.971 121.157,48.044 130.252 C 48.113 138.896,48.247 140.597,48.876 140.838 C 49.053 140.906,49.034 140.717,48.802 140.132 C 48.253 138.746,48.220 121.862,48.764 120.983 C 49.107 120.429,49.198 120.380,49.467 120.602 C 49.737 120.825,49.569 120.265,49.243 119.856 C 49.222 119.829,49.072 119.958,48.911 120.142 M252.723 120.138 C 251.774 121.221,251.780 121.143,251.858 130.347 C 251.930 138.900,252.008 139.971,252.618 140.719 C 252.956 141.133,252.971 140.853,252.652 140.090 C 252.235 139.093,252.014 134.934,252.007 128.000 C 252.002 122.051,252.098 121.202,252.848 120.613 C 253.116 120.402,253.244 120.163,253.160 120.028 C 253.058 119.862,252.939 119.892,252.723 120.138 M156.952 122.810 C 156.952 122.915,157.081 123.108,157.238 123.238 C 157.397 123.370,157.524 123.391,157.524 123.285 C 157.524 123.180,157.395 122.988,157.238 122.857 C 157.079 122.725,156.952 122.704,156.952 122.810 M98.857 126.552 C 98.857 126.727,98.975 127.060,99.119 127.292 C 99.366 127.691,96.671 143.392,96.290 143.773 C 96.229 143.835,95.794 143.783,95.324 143.657 C 94.716 143.494,91.782 143.429,85.105 143.429 C 75.756 143.429,75.738 143.428,75.299 143.015 C 74.692 142.445,74.555 142.681,75.132 143.303 L 75.601 143.810 85.277 143.816 C 93.306 143.822,95.033 143.869,95.429 144.095 C 96.580 144.754,96.476 145.065,98.190 135.810 C 99.787 127.182,99.763 127.386,99.238 126.719 C 98.949 126.351,98.857 126.311,98.857 126.552 M151.630 127.072 C 151.375 127.667,149.977 134.934,149.697 137.120 C 149.457 138.989,149.578 140.412,150.007 140.768 C 150.242 140.963,150.250 140.908,150.066 140.379 C 149.672 139.248,151.187 128.400,151.901 127.244 C 152.600 126.113,156.296 128.345,157.950 130.899 C 158.725 132.095,158.824 132.059,158.154 130.825 C 156.611 127.987,152.299 125.506,151.630 127.072 M316.204 130.190 C 316.204 130.295,316.326 130.595,316.476 130.857 C 316.626 131.119,316.748 131.248,316.748 131.143 C 316.748 131.038,316.626 130.738,316.476 130.476 C 316.326 130.214,316.204 130.086,316.204 130.190 M337.291 137.143 C 339.344 140.534,341.807 142.479,345.160 143.358 C 347.023 143.846,361.506 143.990,361.972 143.525 C 362.357 143.140,362.381 142.108,362.016 141.608 C 361.614 141.059,361.477 141.372,361.819 142.057 C 362.536 143.494,362.711 143.465,353.843 143.378 C 343.245 143.275,341.723 142.754,338.139 138.007 C 337.058 136.574,336.767 136.278,337.291 137.143 M49.429 141.098 C 49.860 141.415,50.317 142.515,50.205 142.964 L 50.088 143.429 44.229 143.429 C 38.606 143.429,38.357 143.413,38.044 143.048 C 37.865 142.838,37.625 142.667,37.512 142.667 C 37.385 142.667,37.403 142.774,37.558 142.946 C 37.696 143.099,37.920 143.356,38.055 143.517 C 38.427 143.960,49.927 143.956,50.294 143.514 C 50.807 142.896,50.155 140.945,49.440 140.955 C 49.308 140.957,49.304 141.007,49.429 141.098 M253.238 141.098 C 253.669 141.415,254.127 142.515,254.014 142.964 L 253.898 143.429 248.154 143.429 C 243.077 143.429,242.371 143.392,242.063 143.113 C 241.652 142.741,241.540 143.178,241.943 143.581 C 242.327 143.965,253.782 143.902,254.104 143.514 C 254.616 142.896,253.965 140.945,253.250 140.955 C 253.118 140.957,253.114 141.007,253.238 141.098 M290.301 141.148 C 290.292 141.308,290.420 141.631,290.584 141.865 C 290.748 142.099,290.855 142.525,290.822 142.812 L 290.762 143.333 285.064 143.384 C 279.564 143.433,279.355 143.421,279.009 143.051 C 278.813 142.839,278.563 142.667,278.455 142.667 C 278.345 142.667,278.369 142.789,278.510 142.946 C 278.649 143.099,278.872 143.356,279.008 143.517 C 279.381 143.962,290.494 143.955,290.939 143.510 C 291.346 143.103,291.316 142.173,290.881 141.738 C 290.685 141.542,290.477 141.263,290.420 141.119 C 290.338 140.914,290.313 140.920,290.301 141.148 M150.667 141.249 C 150.667 141.315,150.807 141.608,150.979 141.899 C 151.179 142.237,151.246 142.608,151.166 142.928 L 151.040 143.429 147.133 143.429 C 143.836 143.429,143.209 143.384,143.117 143.143 C 142.997 142.830,142.667 142.750,142.667 143.034 C 142.667 143.715,143.209 143.810,147.133 143.810 C 151.444 143.810,151.520 143.788,151.484 142.538 C 151.469 142.003,150.667 140.737,150.667 141.249 M171.048 141.370 C 171.048 141.422,171.189 141.749,171.362 142.095 C 171.981 143.336,172.024 143.327,165.139 143.384 C 159.183 143.432,158.974 143.422,158.628 143.050 C 158.432 142.839,158.167 142.673,158.040 142.682 C 157.868 142.693,157.869 142.721,158.048 142.793 C 158.179 142.846,158.286 143.007,158.286 143.152 C 158.286 143.822,170.932 144.230,171.581 143.581 C 171.953 143.209,171.860 142.009,171.429 141.619 C 171.219 141.429,171.048 141.317,171.048 141.370 M324.000 141.435 C 324.000 141.491,324.141 141.752,324.313 142.015 C 324.563 142.396,324.583 142.586,324.412 142.960 L 324.199 143.429 320.680 143.429 C 317.534 143.429,317.142 143.393,316.976 143.097 C 316.874 142.914,316.743 142.812,316.685 142.870 C 315.890 143.665,323.013 144.351,324.393 143.612 C 324.858 143.364,324.903 142.073,324.463 141.633 C 324.154 141.324,324.000 141.258,324.000 141.435 M65.714 141.597 C 65.714 141.638,65.838 141.909,65.989 142.201 C 66.183 142.574,66.209 142.835,66.078 143.080 C 65.825 143.553,53.588 143.628,53.408 143.158 C 53.252 142.751,52.754 142.608,52.893 143.010 C 53.162 143.785,53.372 143.810,59.668 143.810 C 63.489 143.810,65.876 143.736,66.108 143.612 C 66.567 143.367,66.610 142.256,66.177 141.823 C 65.885 141.532,65.714 141.448,65.714 141.597 M269.524 141.597 C 269.524 141.638,269.648 141.909,269.799 142.201 C 269.992 142.574,270.019 142.835,269.887 143.080 C 269.634 143.553,257.398 143.628,257.217 143.158 C 257.061 142.751,256.564 142.608,256.703 143.010 C 256.972 143.785,257.181 143.810,263.477 143.810 C 267.298 143.810,269.685 143.736,269.917 143.612 C 270.376 143.367,270.419 142.256,269.986 141.823 C 269.695 141.532,269.524 141.448,269.524 141.597 M306.857 141.626 C 306.857 141.682,306.992 141.933,307.156 142.184 C 307.389 142.539,307.409 142.729,307.245 143.035 C 306.925 143.633,300.651 143.645,300.139 143.048 C 299.960 142.838,299.705 142.673,299.573 142.682 C 299.383 142.694,299.382 142.716,299.571 142.793 C 299.702 142.846,299.810 143.007,299.810 143.152 C 299.810 143.681,300.575 143.810,303.714 143.810 C 305.534 143.810,307.039 143.726,307.251 143.612 C 307.876 143.278,307.674 141.524,307.010 141.524 C 306.926 141.524,306.857 141.570,306.857 141.626 " stroke="none" fill="#547424" fill-rule="evenodd"></path><path id="path4" d="M203.857 6.902 C 203.556 7.277,203.034 9.837,203.179 10.225 C 203.654 11.488,204.511 9.856,204.561 7.595 C 204.574 6.974,204.142 6.549,203.857 6.902 M203.466 13.903 C 201.569 14.118,201.502 13.099,204.483 29.524 C 205.044 32.614,205.942 37.757,206.479 40.952 C 207.983 49.896,208.869 53.895,209.637 55.213 C 209.813 55.514,209.881 55.562,209.808 55.333 C 209.270 53.643,208.374 49.185,207.242 42.571 C 206.507 38.276,205.399 31.933,204.779 28.476 C 202.184 13.998,202.183 15.189,204.789 14.962 C 206.637 14.800,206.857 14.728,206.857 14.286 C 206.857 13.693,206.081 13.606,203.466 13.903 M194.220 14.246 C 194.352 14.751,194.496 14.799,196.357 14.962 C 198.002 15.105,198.401 14.877,197.494 14.311 C 196.721 13.829,194.097 13.776,194.220 14.246 M177.534 29.782 C 177.142 30.814,177.194 32.949,177.619 33.263 C 178.152 33.655,178.551 30.088,178.032 29.570 C 177.756 29.294,177.713 29.312,177.534 29.782 M230.054 30.330 C 229.127 31.756,228.848 33.725,229.502 34.216 C 230.056 34.630,231.080 30.881,230.590 30.235 C 230.349 29.917,230.318 29.923,230.054 30.330 M178.530 36.352 C 176.677 36.776,176.416 37.049,177.046 37.903 C 177.355 38.321,177.524 38.439,177.524 38.236 C 177.524 37.904,178.090 37.697,180.064 37.306 C 181.218 37.078,181.544 36.769,181.141 36.283 C 180.850 35.933,180.294 35.948,178.530 36.352 M219.839 36.681 C 219.949 37.251,223.238 37.932,223.238 37.384 C 223.238 37.131,221.814 36.598,220.763 36.458 C 219.863 36.339,219.777 36.359,219.839 36.681 M168.719 37.440 C 168.464 37.695,168.844 38.273,169.338 38.382 C 171.075 38.764,172.719 38.253,171.857 37.598 C 171.529 37.349,168.940 37.218,168.719 37.440 M227.642 37.592 C 227.524 37.734,227.471 38.098,227.524 38.401 C 227.577 38.704,227.793 41.052,228.004 43.619 C 228.568 50.477,229.400 55.446,230.372 57.762 C 230.828 58.848,230.824 58.637,230.353 56.769 C 229.622 53.868,229.006 48.936,228.540 42.238 C 228.262 38.239,228.215 38.357,230.051 38.435 C 231.706 38.504,232.381 38.352,232.381 37.910 C 232.381 37.283,228.135 36.998,227.642 37.592 M153.539 42.200 C 153.557 43.324,153.920 44.803,154.200 44.894 C 154.482 44.985,154.072 41.801,153.762 41.494 C 153.572 41.305,153.527 41.447,153.539 42.200 M254.039 43.647 C 253.009 44.223,252.000 46.770,252.499 47.532 L 252.808 48.003 253.832 46.210 C 254.396 45.223,254.857 44.316,254.857 44.194 C 254.857 43.781,254.375 43.458,254.039 43.647 M155.899 47.684 C 154.130 48.533,153.900 48.816,154.481 49.434 C 154.864 49.841,154.963 49.869,155.223 49.640 C 155.389 49.495,156.167 49.056,156.952 48.665 C 158.670 47.812,158.538 47.924,158.386 47.443 C 158.202 46.866,157.455 46.938,155.899 47.684 M242.667 47.755 C 242.667 47.996,245.492 49.348,245.607 49.162 C 245.662 49.074,245.215 48.743,244.615 48.427 C 243.350 47.762,242.667 47.526,242.667 47.755 M147.405 50.579 C 145.225 51.261,145.840 52.196,148.143 51.701 C 150.046 51.292,150.263 51.176,149.981 50.720 C 149.708 50.280,148.561 50.217,147.405 50.579 M249.731 50.551 C 249.610 50.697,247.884 56.290,245.895 62.980 C 241.182 78.828,241.187 78.814,240.836 79.010 C 240.638 79.121,240.123 79.028,239.325 78.739 C 232.314 76.193,210.171 74.443,192.245 75.018 C 173.508 75.618,157.531 77.887,159.061 79.731 C 159.365 80.097,159.721 80.052,162.678 79.274 C 167.444 78.021,174.827 77.081,185.714 76.341 C 190.449 76.019,210.694 76.019,215.429 76.341 C 226.837 77.116,234.864 78.179,239.534 79.532 C 241.528 80.110,241.864 80.115,242.095 79.571 C 242.196 79.336,244.090 73.014,246.305 65.524 C 248.572 57.857,250.473 51.756,250.654 51.565 C 250.963 51.239,251.045 51.241,252.667 51.619 C 254.534 52.054,254.878 52.025,254.725 51.440 C 254.654 51.170,254.466 51.047,254.121 51.046 C 253.845 51.046,252.906 50.874,252.036 50.665 C 250.153 50.214,250.017 50.207,249.731 50.551 M239.489 85.552 C 239.373 85.694,239.042 86.624,238.752 87.619 C 237.997 90.212,237.950 90.247,236.008 89.633 C 222.039 85.220,178.617 85.057,163.905 89.362 C 162.182 89.866,161.768 90.200,162.231 90.712 C 162.590 91.108,162.632 91.104,164.667 90.494 C 179.172 86.144,223.156 86.265,237.187 90.694 C 238.835 91.214,238.850 91.202,239.619 88.571 C 239.941 87.471,240.240 86.468,240.283 86.343 C 240.423 85.936,239.734 85.251,239.489 85.552 M95.048 99.135 C 95.048 99.419,96.420 110.253,96.585 111.271 C 96.739 112.222,96.735 112.647,96.568 112.960 C 96.280 113.496,96.786 114.147,97.183 113.751 C 97.389 113.544,96.057 100.872,95.694 99.589 C 95.618 99.319,95.048 98.919,95.048 99.135 M48.629 100.386 C 47.377 101.746,47.361 101.832,47.278 107.429 C 47.198 112.920,47.317 115.045,47.684 114.678 C 47.835 114.528,47.943 112.780,48.025 109.181 C 48.157 103.379,48.261 102.748,49.248 101.762 C 50.064 100.945,50.168 100.589,49.759 99.997 L 49.429 99.518 48.629 100.386 M63.057 99.792 C 62.939 100.012,62.310 100.460,61.659 100.788 C 60.063 101.592,57.807 103.894,55.853 106.711 C 53.730 109.771,53.802 109.599,54.303 110.409 L 54.722 111.088 54.951 110.544 C 55.077 110.245,55.718 109.229,56.375 108.286 C 59.010 104.505,60.525 102.931,62.587 101.836 C 63.821 101.181,64.105 100.581,63.553 99.793 L 63.271 99.391 63.057 99.792 M252.476 100.325 C 251.191 101.685,251.164 101.818,251.084 107.333 C 251.000 113.122,251.137 115.403,251.524 114.661 C 251.699 114.325,251.795 112.720,251.860 109.048 C 251.961 103.320,252.034 102.900,253.151 101.609 C 254.017 100.610,254.011 100.632,253.570 99.998 L 253.238 99.519 252.476 100.325 M266.726 99.877 C 266.514 100.121,265.925 100.522,265.416 100.768 C 263.616 101.640,260.120 105.573,258.094 109.007 L 257.680 109.709 258.106 110.398 L 258.532 111.088 258.769 110.523 C 259.832 107.995,264.348 102.826,266.381 101.810 C 267.623 101.189,267.921 100.591,267.378 99.815 C 267.114 99.438,267.107 99.439,266.726 99.877 M289.466 100.319 C 288.024 101.720,288.095 100.689,288.095 120.190 L 288.095 137.619 288.526 138.990 C 288.763 139.745,289.057 140.423,289.178 140.498 C 289.329 140.591,289.356 140.524,289.264 140.284 C 288.839 139.177,288.744 134.992,288.807 120.079 C 288.881 102.166,288.845 102.653,290.197 101.574 C 290.902 101.012,291.048 100.362,290.601 99.774 C 290.380 99.483,290.272 99.535,289.466 100.319 M323.022 100.389 C 321.653 101.730,321.696 101.038,321.756 120.772 L 321.810 138.190 322.250 139.282 C 322.756 140.533,323.128 140.928,322.795 139.859 C 322.452 138.760,322.478 104.214,322.822 103.075 C 322.970 102.587,323.381 101.944,323.822 101.511 C 324.678 100.673,324.686 100.644,324.237 100.000 L 323.905 99.524 323.022 100.389 M162.177 100.367 C 161.572 101.281,161.578 101.383,162.466 106.095 C 163.209 110.031,165.069 119.652,165.431 121.429 C 165.581 122.162,166.138 125.033,166.669 127.810 C 168.419 136.953,168.698 138.163,169.361 139.476 C 169.862 140.468,169.906 140.369,169.499 139.162 C 169.308 138.597,168.161 133.047,166.950 126.829 C 162.078 101.811,162.186 102.514,163.036 101.380 C 163.416 100.874,163.469 100.667,163.322 100.253 C 163.051 99.484,162.741 99.515,162.177 100.367 M313.296 100.333 C 312.632 101.344,312.560 101.796,312.888 102.918 C 313.185 103.932,316.196 110.534,316.310 110.420 C 316.345 110.385,315.766 109.046,315.024 107.445 C 313.390 103.919,313.185 102.789,313.984 101.725 C 314.514 101.019,314.590 100.569,314.279 99.987 C 313.999 99.463,313.828 99.524,313.296 100.333 M356.571 100.401 C 356.571 101.438,357.277 111.217,357.426 112.244 C 357.483 112.641,357.437 113.139,357.323 113.352 C 357.092 113.784,357.366 114.286,357.833 114.286 C 358.355 114.286,357.461 100.804,356.885 99.981 C 356.574 99.538,356.571 99.542,356.571 100.401 M38.032 100.872 C 38.091 101.027,38.308 101.243,38.513 101.353 C 38.845 101.531,38.864 101.512,38.686 101.180 C 38.442 100.723,37.872 100.455,38.032 100.872 M75.238 100.952 C 75.350 101.162,75.538 101.333,75.655 101.333 C 75.773 101.333,75.713 101.162,75.524 100.952 C 75.334 100.743,75.146 100.571,75.107 100.571 C 75.067 100.571,75.126 100.743,75.238 100.952 M180.804 100.949 C 180.933 101.156,181.168 101.375,181.325 101.435 C 181.482 101.496,181.404 101.326,181.153 101.058 C 180.605 100.475,180.484 100.437,180.804 100.949 M316.994 100.949 C 317.124 101.156,317.358 101.375,317.515 101.435 C 317.672 101.496,317.595 101.326,317.343 101.058 C 316.795 100.475,316.675 100.437,316.994 100.949 M279.048 100.906 C 279.048 101.010,279.176 101.203,279.333 101.333 C 279.493 101.466,279.619 101.486,279.619 101.380 C 279.619 101.275,279.490 101.083,279.333 100.952 C 279.174 100.820,279.048 100.799,279.048 100.906 M203.247 102.181 C 204.508 105.700,202.486 111.292,198.899 114.207 C 197.563 115.293,197.304 115.921,198.117 116.100 C 199.489 116.401,202.867 112.514,203.832 109.524 C 204.562 107.263,204.299 103.237,203.341 102.000 C 203.063 101.641,203.057 101.652,203.247 102.181 M131.003 102.476 C 131.917 106.828,129.900 111.678,125.892 114.766 C 125.128 115.355,125.059 115.951,125.736 116.100 C 127.119 116.404,130.643 112.320,131.526 109.390 C 132.175 107.237,132.057 104.322,131.254 102.631 C 130.871 101.827,130.866 101.824,131.003 102.476 M86.571 103.027 C 84.702 103.503,84.314 104.450,84.225 108.762 C 84.160 111.935,84.298 113.143,84.727 113.143 C 84.818 113.143,84.947 111.750,85.014 110.048 C 85.081 108.345,85.232 106.614,85.350 106.199 C 86.018 103.843,88.823 103.341,91.740 105.055 L 92.857 105.711 92.000 104.945 C 90.375 103.491,88.019 102.659,86.571 103.027 M119.227 103.032 C 117.400 103.608,117.333 103.847,117.333 109.782 C 117.333 114.671,117.477 115.859,118.048 115.667 C 118.230 115.606,118.286 114.432,118.286 110.660 C 118.286 107.245,118.356 105.579,118.513 105.233 C 119.008 104.147,120.926 103.718,122.391 104.366 L 123.317 104.776 122.849 104.274 C 121.934 103.294,120.239 102.712,119.227 103.032 M191.608 103.032 C 189.748 103.619,189.713 103.744,189.721 109.848 C 189.726 113.845,189.785 115.056,189.993 115.429 C 190.412 116.181,190.460 115.733,190.518 110.571 C 190.580 105.041,190.632 104.834,192.111 104.269 C 192.994 103.932,193.992 104.003,195.143 104.484 C 195.487 104.627,195.497 104.610,195.253 104.310 C 194.509 103.396,192.589 102.722,191.608 103.032 M346.672 103.749 C 341.545 105.620,339.391 118.196,342.256 129.533 C 342.772 131.576,344.048 134.937,344.387 135.146 C 344.468 135.197,344.278 134.628,343.965 133.882 C 341.050 126.946,341.063 114.730,343.992 108.618 C 345.949 104.534,349.358 103.431,352.692 105.804 C 353.313 106.246,353.282 106.195,352.490 105.473 C 350.567 103.719,348.462 103.096,346.672 103.749 M304.582 108.286 C 304.399 109.306,304.363 112.863,304.430 123.429 C 304.522 138.025,304.586 139.055,305.453 140.121 C 305.726 140.456,305.734 140.449,305.593 140.000 C 305.510 139.738,305.418 132.473,305.388 123.854 C 305.343 111.278,305.282 108.063,305.076 107.569 L 304.821 106.952 304.582 108.286 M154.476 108.445 C 154.476 108.627,154.353 108.965,154.202 109.197 C 153.803 109.811,152.138 118.803,152.281 119.568 C 152.406 120.235,152.861 120.411,153.027 119.857 C 153.387 118.655,154.898 110.032,154.870 109.333 C 154.838 108.525,154.476 107.709,154.476 108.445 M91.547 109.759 C 91.741 112.551,92.791 123.321,92.883 123.470 C 92.935 123.555,92.856 123.867,92.708 124.165 C 92.408 124.766,92.945 125.417,93.381 124.981 C 93.700 124.662,92.148 109.073,91.758 108.683 C 91.475 108.400,91.458 108.486,91.547 109.759 M316.399 110.762 C 316.399 110.867,316.648 111.424,316.952 112.000 C 317.257 112.576,317.506 112.962,317.506 112.857 C 317.506 112.752,317.257 112.195,316.952 111.619 C 316.648 111.043,316.399 110.657,316.399 110.762 M55.818 113.164 C 55.813 113.228,56.078 113.871,56.405 114.593 C 58.334 118.839,60.460 126.141,62.083 134.095 C 62.696 137.100,63.226 138.954,63.715 139.810 C 64.065 140.424,64.067 140.270,63.720 139.224 C 63.567 138.761,63.134 136.924,62.760 135.143 C 61.128 127.388,59.257 120.826,57.448 116.516 C 56.645 114.603,55.834 112.936,55.818 113.164 M259.627 113.164 C 259.623 113.228,259.887 113.871,260.215 114.593 C 262.144 118.839,264.269 126.141,265.893 134.095 C 266.506 137.100,267.035 138.954,267.524 139.810 C 267.850 140.381,267.888 140.228,267.603 139.489 C 267.489 139.194,266.930 136.810,266.361 134.190 C 264.643 126.292,263.057 120.803,261.245 116.486 C 260.453 114.598,259.644 112.937,259.627 113.164 M84.739 117.339 L 84.286 117.446 84.233 125.056 C 84.201 129.779,84.258 133.173,84.385 134.000 C 84.572 135.226,85.350 137.333,85.615 137.333 C 85.677 137.333,85.644 137.177,85.542 136.987 C 84.881 135.751,84.691 118.895,85.333 118.458 C 85.848 118.108,88.662 118.380,89.472 118.857 L 90.190 119.280 89.810 118.853 C 88.757 117.675,86.355 116.957,84.739 117.339 M361.602 117.809 C 361.383 118.019,360.892 118.428,360.511 118.719 C 359.245 119.685,359.193 120.143,359.279 129.678 C 359.351 137.821,359.362 138.024,359.790 139.108 C 360.031 139.718,360.245 140.189,360.266 140.156 C 360.287 140.123,360.223 136.495,360.125 132.095 C 359.893 121.714,360.036 120.583,361.720 119.520 C 362.522 119.014,362.720 118.316,362.232 117.714 C 362.028 117.462,361.952 117.474,361.602 117.809 M119.524 119.076 C 118.790 119.510,117.998 120.039,117.762 120.251 L 117.333 120.638 117.333 127.929 C 117.333 135.348,117.441 136.763,118.063 137.531 C 118.361 137.900,118.381 137.410,118.381 129.684 L 118.381 121.443 119.810 120.540 C 120.595 120.042,121.475 119.567,121.764 119.484 L 122.289 119.333 121.803 118.809 C 121.177 118.133,121.104 118.142,119.524 119.076 M191.905 119.076 C 191.171 119.510,190.379 120.039,190.143 120.251 L 189.714 120.638 189.714 127.929 C 189.714 135.036,189.825 136.700,190.345 137.411 C 190.521 137.653,190.558 135.984,190.509 129.898 C 190.455 123.204,190.487 122.011,190.731 121.640 C 191.034 121.177,193.460 119.654,194.216 119.452 L 194.668 119.331 194.183 118.808 C 193.558 118.133,193.485 118.142,191.905 119.076 M350.476 118.804 C 350.476 119.044,351.021 119.519,351.149 119.391 C 351.199 119.341,351.068 119.144,350.858 118.953 C 350.648 118.763,350.476 118.696,350.476 118.804 M47.959 119.190 C 47.258 119.994,47.238 120.243,47.238 128.376 C 47.238 136.707,47.369 138.406,48.125 139.868 C 48.497 140.587,48.624 140.435,48.344 139.606 C 48.113 138.926,47.869 122.454,48.076 121.627 C 48.134 121.398,48.403 120.882,48.675 120.481 C 49.460 119.326,48.830 118.192,47.959 119.190 M251.768 119.190 C 251.020 120.048,251.008 120.198,251.037 128.452 C 251.066 136.748,251.199 138.445,251.935 139.868 C 252.307 140.588,252.434 140.435,252.151 139.606 C 251.921 138.930,251.679 122.452,251.887 121.621 C 251.944 121.395,252.213 120.882,252.485 120.481 C 253.269 119.326,252.640 118.192,251.768 119.190 M132.502 123.430 C 134.663 129.644,132.504 138.585,128.239 141.085 C 126.250 142.251,125.606 142.327,116.952 142.412 C 108.045 142.500,108.051 142.500,108.523 143.050 C 108.961 143.562,124.531 143.635,126.650 143.135 C 129.933 142.361,132.165 139.924,133.451 135.709 C 134.502 132.266,134.147 126.487,132.682 123.190 C 132.021 121.703,131.940 121.812,132.502 123.430 M204.493 122.381 C 204.557 122.590,204.775 123.230,204.976 123.802 C 206.697 128.709,205.301 136.562,202.137 139.775 C 199.802 142.146,198.989 142.310,189.143 142.410 C 180.211 142.500,180.214 142.499,180.765 143.051 C 181.212 143.498,196.671 143.642,198.705 143.218 C 202.248 142.479,204.715 139.781,205.937 135.310 C 206.887 131.832,206.421 126.109,204.946 123.147 C 204.632 122.516,204.428 122.171,204.493 122.381 M150.993 125.762 C 150.082 126.445,148.445 137.781,149.034 139.325 C 149.478 140.488,149.737 140.598,149.595 139.563 C 149.420 138.285,151.001 128.546,151.619 127.095 C 151.948 126.323,153.956 126.669,155.415 127.749 L 156.095 128.252 155.429 127.544 C 154.178 126.216,151.710 125.224,150.993 125.762 M98.508 127.527 C 98.400 127.944,98.224 128.629,98.117 129.048 C 98.010 129.467,97.445 132.381,96.862 135.524 C 96.279 138.667,95.705 141.685,95.587 142.231 L 95.371 143.223 94.781 142.802 C 94.194 142.383,94.135 142.381,85.000 142.326 C 75.256 142.269,74.669 142.313,75.347 143.063 C 75.665 143.414,76.050 143.429,85.074 143.429 C 91.776 143.429,94.716 143.494,95.324 143.657 C 96.446 143.957,96.212 144.676,97.819 135.975 C 98.600 131.746,99.273 128.135,99.316 127.952 C 99.358 127.768,99.238 127.427,99.049 127.193 L 98.705 126.768 98.508 127.527 M340.701 140.714 C 343.198 143.043,344.398 143.286,353.843 143.378 C 362.755 143.465,362.512 143.507,361.796 141.999 L 361.482 141.336 361.108 141.811 L 360.734 142.286 353.216 142.286 C 344.027 142.286,342.979 142.133,340.571 140.440 C 339.962 140.012,339.974 140.036,340.701 140.714 M65.197 142.038 C 64.776 142.476,64.771 142.476,59.165 142.476 C 53.030 142.476,52.812 142.498,53.295 143.062 C 53.592 143.410,53.927 143.429,59.750 143.429 C 66.610 143.429,66.625 143.426,65.979 142.180 C 65.627 141.503,65.700 141.516,65.197 142.038 M150.222 142.021 C 149.710 142.462,149.593 142.476,146.481 142.476 C 142.814 142.476,142.546 142.521,143.009 143.062 C 143.447 143.573,150.928 143.633,151.122 143.127 C 151.519 142.095,150.949 141.396,150.222 142.021 M170.531 142.036 L 170.109 142.476 164.499 142.476 C 158.364 142.476,158.145 142.498,158.628 143.062 C 159.044 143.547,171.016 143.640,171.413 143.161 C 172.001 142.453,171.159 141.381,170.531 142.036 M269.007 142.038 C 268.585 142.476,268.580 142.476,262.975 142.476 C 256.840 142.476,256.621 142.498,257.104 143.062 C 257.402 143.410,257.736 143.429,263.559 143.429 C 270.419 143.429,270.434 143.426,269.788 142.180 C 269.437 141.503,269.509 141.516,269.007 142.038 M289.903 142.002 L 289.457 142.476 284.363 142.476 C 278.758 142.476,278.501 142.505,279.025 143.068 C 279.350 143.416,279.650 143.432,285.064 143.384 L 290.762 143.333 290.822 142.812 C 290.931 141.863,290.440 141.430,289.903 142.002 M306.340 142.044 C 305.940 142.454,305.777 142.476,303.165 142.476 C 299.969 142.476,299.696 142.529,300.152 143.062 C 300.650 143.644,306.931 143.622,307.244 143.037 C 307.409 142.729,307.380 142.537,307.107 142.129 L 306.762 141.611 306.340 142.044 M323.483 142.036 C 323.078 142.459,322.944 142.476,320.118 142.476 C 316.726 142.476,316.455 142.526,316.914 143.062 C 317.411 143.642,324.073 143.623,324.385 143.040 C 324.848 142.175,324.124 141.368,323.483 142.036 M49.169 142.102 C 48.746 142.454,48.411 142.476,43.518 142.476 C 37.805 142.476,37.576 142.501,38.057 143.062 C 38.354 143.409,38.685 143.429,44.229 143.429 L 50.088 143.429 50.203 142.970 C 50.448 141.992,49.877 141.512,49.169 142.102 M252.979 142.102 C 252.557 142.453,252.219 142.476,247.455 142.479 C 244.664 142.480,242.189 142.533,241.954 142.596 L 241.528 142.710 241.984 143.069 C 242.409 143.403,242.845 143.429,248.169 143.429 L 253.898 143.429 254.013 142.970 C 254.258 141.992,253.686 141.512,252.979 142.102 " stroke="none" fill="#396123" fill-rule="evenodd"></path></g></svg>